<?xml version="1.0" standalone="no"?>
<!DOCTYPE svg PUBLIC "-//W3C//DTD SVG 20010904//EN"
 "http://www.w3.org/TR/2001/REC-SVG-20010904/DTD/svg10.dtd">
<svg version="1.0" xmlns="http://www.w3.org/2000/svg"
 width="1280.000000pt" height="630.000000pt" viewBox="0 0 1280.000000 630.000000"
 preserveAspectRatio="xMidYMid meet">

<g transform="translate(0.000000,630.000000) scale(0.100000,-0.100000)"
fill="#000000" stroke="none">
<path d="M0 3150 l0 -3149 6345 0 6345 0 0 3149 0 3150 -6345 0 -6345 0 0
-3150z m12568 2968 c7 -7 12 -37 12 -68 0 -31 -5 -61 -12 -68 -7 -7 -39 -12
-75 -12 -51 0 -64 3 -73 19 -16 30 -12 107 6 125 19 19 124 22 142 4z m-5519
-209 c-8 -5 -8 -8 0 -13 16 -10 13 -36 -4 -36 -8 0 -15 5 -15 11 0 5 6 7 13 3
10 -6 10 -4 0 7 -7 7 -13 27 -13 44 1 28 1 29 15 11 11 -14 12 -22 4 -27z
m-1021 -18 c3 -27 0 -32 -15 -29 -19 3 -28 30 -19 54 10 26 31 10 34 -25z m80
1 c3 -26 0 -31 -17 -29 -17 1 -21 8 -21 33 0 45 34 41 38 -4z m42 2 c0 -37 20
-29 21 9 0 17 3 26 6 19 4 -10 8 -10 19 -1 12 9 14 5 14 -25 l0 -37 -45 2
c-46 3 -54 13 -39 53 9 22 24 10 24 -20z m110 -9 c0 -14 -7 -21 -20 -22 -17
-2 -19 2 -14 25 4 15 9 31 12 36 6 12 22 -15 22 -39z m229 10 c1 26 5 31 25
30 24 0 51 -15 28 -15 -9 0 -9 -5 0 -20 15 -23 6 -35 -19 -26 -14 6 -15 9 -4
15 8 6 9 11 3 15 -6 3 -13 -3 -17 -14 -6 -20 -34 -28 -36 -10 -6 46 3 70 11
30 l7 -35 2 30z m93 -5 c3 -20 0 -30 -9 -30 -8 0 -13 13 -13 36 0 41 16 38 22
-6z m37 2 c0 15 6 30 12 33 7 5 9 -5 7 -26 -2 -23 -9 -35 -20 -37 -15 -3 -18
3 -17 35 l2 38 7 -35 c6 -31 8 -32 9 -8z m69 18 c3 -9 -1 -11 -12 -7 -12 5
-16 1 -15 -16 0 -12 3 -16 6 -9 7 17 23 15 23 -3 0 -8 -9 -15 -20 -15 -15 0
-20 7 -20 28 0 42 27 57 38 22z m42 10 c0 -5 -4 -10 -9 -10 -12 0 -9 -33 4
-42 6 -4 2 -8 -7 -8 -14 0 -18 8 -18 35 0 24 5 35 15 35 8 0 15 -4 15 -10z
m240 -25 c0 -24 -5 -31 -20 -32 -16 -1 -20 4 -20 30 0 26 4 33 20 33 16 0 20
-7 20 -31z m44 -7 c5 -22 3 -27 -14 -25 -21 1 -23 8 -14 45 8 27 19 19 28 -20z
m108 7 c-2 -19 -8 -35 -12 -35 -4 0 -10 16 -12 35 -3 27 0 35 12 35 12 0 15
-8 12 -35z m25 -17 c-2 -13 -4 -5 -4 17 -1 22 1 32 4 23 2 -10 2 -28 0 -40z
m49 43 c12 9 14 5 14 -23 0 -29 -4 -34 -25 -36 -21 -1 -25 2 -25 26 0 30 12
51 18 32 3 -8 8 -8 18 1z m251 -11 c-2 -10 0 -24 4 -33 7 -12 5 -15 -11 -14
-15 1 -20 8 -20 32 0 22 5 32 16 32 10 0 14 -7 11 -17z m51 -19 c3 -27 0 -32
-15 -29 -19 3 -28 30 -19 54 10 26 31 10 34 -25z m45 31 c3 7 6 -3 6 -22 1
-29 -3 -36 -19 -37 -17 -1 -20 4 -20 34 0 29 2 33 14 24 11 -9 15 -9 19 1z
m47 -27 c0 -19 -4 -35 -10 -35 -5 0 -10 9 -10 19 0 11 -3 26 -6 35 -4 11 -1
16 10 16 12 0 16 -10 16 -35z m42 -4 c3 -24 1 -29 -14 -28 -18 1 -23 22 -12
51 9 22 21 11 26 -23z m45 19 c-2 -10 0 -24 4 -33 7 -12 5 -15 -11 -14 -15 1
-20 8 -20 32 0 22 5 32 16 32 10 0 14 -7 11 -17z m43 -15 c0 -19 -4 -35 -10
-35 -5 0 -10 9 -10 19 0 11 -3 26 -6 35 -4 11 -1 16 10 16 12 0 16 -10 16 -35z
m240 19 c0 -8 -4 -12 -10 -9 -6 3 -10 -4 -10 -17 0 -19 2 -20 10 -8 9 13 11
13 20 0 8 -12 10 -9 10 12 0 31 15 45 24 22 15 -38 7 -50 -34 -52 -38 -3 -40
-1 -40 26 0 16 3 32 7 35 11 12 23 8 23 -9z m82 -19 c3 -24 0 -35 -9 -35 -8 0
-13 13 -13 35 0 19 4 35 9 35 5 0 11 -16 13 -35z m44 0 c-1 -47 -26 -47 -26 0
0 23 5 35 14 35 9 0 13 -11 12 -35z m52 0 c2 -25 -1 -31 -18 -32 -17 -1 -20 4
-20 33 0 28 4 35 18 32 11 -2 18 -14 20 -33z m32 0 c0 -19 -4 -35 -10 -35 -5
0 -10 16 -10 35 0 19 5 35 10 35 6 0 10 -16 10 -35z m30 0 c0 -19 -4 -35 -10
-35 -11 0 -14 53 -3 63 11 12 13 8 13 -28z m40 23 c0 -7 3 -23 6 -35 5 -18 2
-22 -16 -20 -16 1 -20 6 -16 22 3 11 6 26 6 33 0 6 5 12 10 12 6 0 10 -6 10
-12z m-4576 -439 c3 5 17 11 31 13 21 5 25 2 20 -13 -4 -13 -1 -19 9 -19 10 0
13 -6 9 -17 -4 -10 -2 -14 4 -10 18 11 43 -3 43 -24 0 -10 -4 -19 -9 -19 -4 0
-4 -23 0 -51 7 -41 5 -56 -11 -82 -16 -26 -20 -28 -20 -12 0 13 -3 16 -8 8 -5
-8 -12 -8 -26 3 -11 8 -17 14 -13 14 5 0 2 6 -5 14 -7 7 -18 11 -25 9 -16 -6
-63 26 -63 44 0 8 -4 11 -10 8 -6 -3 -7 1 -4 9 3 9 2 16 -4 16 -6 0 -8 9 -5
20 3 11 9 20 14 20 5 0 9 4 9 10 0 5 -8 7 -17 3 -17 -6 -17 -5 -1 14 10 11 19
31 20 45 l2 26 27 -19 c15 -11 30 -15 33 -10z m933 -23 c-3 -6 -2 -31 2 -56 4
-25 3 -61 -1 -80 -11 -51 0 -108 23 -115 10 -4 19 -11 19 -17 0 -5 9 -21 20
-35 13 -17 18 -33 14 -47 -6 -18 -5 -19 10 -7 13 11 19 11 32 0 11 -9 18 -9
22 -2 4 6 18 9 32 8 14 -1 30 -3 37 -4 6 0 15 -11 19 -23 4 -13 10 -25 14 -28
5 -3 6 -16 3 -30 -4 -23 -10 -25 -59 -28 -60 -4 -94 -9 -102 -16 -9 -9 20 -36
31 -29 6 3 7 1 3 -6 -4 -6 -12 -9 -18 -5 -5 3 -8 -2 -7 -12 2 -11 0 -24 -4
-31 -4 -6 -1 -17 6 -25 7 -7 17 -24 24 -38 l11 -25 10 25 c7 16 11 19 11 9 1
-9 -5 -22 -13 -28 -11 -10 -16 -9 -24 5 -6 11 -11 13 -16 5 -4 -6 -2 -11 5
-11 7 0 9 -10 6 -30 -5 -22 -3 -30 8 -30 8 0 21 -16 30 -36 8 -19 19 -33 25
-29 5 3 10 -3 10 -14 0 -12 5 -21 12 -21 6 0 4 -7 -5 -18 -10 -10 -17 -27 -17
-38 1 -17 2 -17 20 5 15 17 20 19 20 8 0 -9 -5 -19 -11 -22 -6 -4 -8 -13 -6
-19 4 -9 -3 -11 -21 -8 -20 4 -24 2 -19 -11 3 -8 -1 -21 -9 -28 -12 -9 -14 -8
-13 7 1 11 1 30 0 44 -1 20 -3 22 -11 10 -9 -13 -11 -13 -20 0 -6 9 -10 10
-10 3 0 -6 5 -15 10 -18 15 -9 12 -42 -4 -48 -7 -3 -18 -1 -24 5 -8 8 -14 4
-21 -15 -11 -27 -41 -38 -41 -15 0 7 -8 1 -17 -12 -9 -14 -20 -27 -24 -30 -10
-7 -2 -64 10 -68 6 -2 11 -12 11 -23 0 -11 7 -19 18 -19 23 0 39 -28 37 -65
-2 -16 -3 -41 -4 -55 -1 -19 -3 -22 -10 -10 -6 8 -7 19 -5 25 3 5 -2 1 -10 -9
-9 -11 -16 -25 -16 -30 0 -7 -3 -7 -8 0 -5 8 -12 6 -25 -6 -16 -16 -16 -19 8
-54 14 -20 25 -43 25 -50 0 -7 9 -21 20 -31 11 -10 20 -23 20 -29 0 -6 -5 -5
-12 2 -18 18 -28 14 -28 -12 0 -19 4 -23 19 -19 10 3 22 -1 26 -8 5 -7 4 -10
-2 -6 -5 4 -8 -7 -5 -26 2 -22 0 -28 -6 -19 -7 11 -10 8 -14 -12 -3 -14 -1
-24 5 -23 5 1 11 -11 14 -28 2 -16 8 -43 13 -59 6 -16 10 -40 10 -52 0 -13 5
-24 10 -24 6 0 10 -7 10 -15 0 -8 -4 -15 -10 -15 -14 0 -12 -28 3 -33 9 -3 9
-7 -2 -20 -10 -13 -10 -17 -1 -17 7 0 10 -8 7 -19 -2 -10 0 -25 4 -34 6 -10 5
-18 -1 -22 -7 -4 -8 -23 -5 -50 4 -25 2 -51 -4 -64 -12 -21 -12 -21 -37 6 -13
14 -27 37 -30 50 -4 13 -10 23 -15 23 -5 0 -9 10 -9 23 0 13 -3 27 -6 30 -11
10 -94 249 -94 268 0 6 -14 38 -31 72 l-31 62 0 200 c0 184 2 204 22 255 13
30 26 71 30 90 4 19 16 69 25 110 19 80 20 166 3 187 -6 7 -7 13 -3 13 4 0 2
6 -4 13 -6 8 -8 16 -6 19 3 3 -2 27 -11 54 -13 38 -15 65 -9 119 7 66 15 216
18 350 l2 60 38 1 c20 1 40 3 42 6 10 9 36 4 32 -6z m-566 -80 c5 3 14 -8 20
-23 6 -15 15 -36 20 -45 7 -13 5 -18 -6 -18 -8 0 -15 5 -15 10 0 6 -6 10 -13
10 -7 0 -13 8 -14 18 -1 9 -4 28 -7 42 -3 14 -4 19 0 12 3 -6 10 -10 15 -6z
m-136 -96 c7 0 16 -7 19 -16 10 -25 7 -34 -9 -28 -8 4 -13 10 -10 14 3 4 -2
10 -10 14 -9 3 -14 17 -14 33 2 24 2 25 6 6 2 -13 10 -23 18 -23z m-2095 -5
c6 -4 8 -10 5 -15 -3 -5 4 -7 15 -5 11 2 20 -1 20 -6 0 -6 8 -5 21 2 17 9 20
8 14 -2 -6 -9 -3 -10 10 -6 11 5 22 1 31 -10 13 -17 14 -17 8 0 -4 11 -1 17 9
17 17 0 32 -60 22 -91 -5 -14 0 -27 14 -40 17 -16 21 -17 21 -5 0 9 11 18 25
22 13 3 27 15 30 25 4 10 15 19 25 19 10 0 22 5 26 11 3 6 17 8 30 5 18 -5 27
0 40 19 13 20 19 23 25 13 7 -10 9 -10 9 2 1 8 7 0 16 -19 16 -38 11 -64 -17
-95 -21 -22 -40 -81 -41 -127 -1 -16 -5 -29 -9 -29 -4 0 -10 -13 -14 -29 -5
-22 -1 -38 16 -60 26 -36 78 -58 91 -39 6 10 8 10 8 -1 0 -8 6 -11 15 -7 11 4
19 -3 25 -20 14 -36 13 -41 -10 -47 -11 -3 -24 -16 -29 -29 -9 -21 -10 -20
-12 12 -1 19 -1 38 -1 41 1 3 -5 6 -13 6 -10 0 -11 -5 -4 -18 12 -23 12 -32
-1 -24 -5 3 -10 -1 -10 -9 0 -9 5 -16 11 -16 5 0 7 -5 4 -10 -4 -6 -11 -8 -16
-5 -5 4 -9 1 -9 -5 0 -7 7 -9 16 -6 13 5 15 2 11 -14 -3 -13 0 -20 9 -20 8 0
14 7 14 15 0 8 5 15 11 15 5 0 9 -8 8 -17 -2 -10 0 -30 4 -45 l7 -27 23 22
c13 12 22 27 20 32 -2 6 6 11 18 12 18 2 20 -2 14 -24 -6 -27 -27 -53 -43 -53
-9 0 -41 -34 -80 -85 -40 -52 -206 -217 -242 -240 -39 -25 -79 -110 -60 -129
19 -19 10 -33 -30 -49 -42 -16 -57 -44 -17 -32 52 16 72 31 70 53 -2 13 3 22
11 22 8 0 21 11 30 24 20 31 64 76 75 76 4 0 23 15 42 34 41 40 105 76 137 76
21 0 23 -3 17 -32 -11 -52 -29 -78 -97 -149 -34 -36 -92 -101 -128 -144 -142
-170 -153 -178 -183 -134 -11 15 -16 17 -20 7 -3 -7 -6 -3 -6 10 -1 12 3 22 8
22 10 0 9 42 -3 83 -13 43 -26 31 -27 -25 -1 -52 -1 -58 8 -88 2 -9 -9 -32
-25 -53 -30 -37 -47 -70 -145 -277 -29 -63 -75 -150 -100 -193 -26 -43 -47
-81 -47 -84 0 -4 -11 -21 -25 -39 -14 -18 -25 -42 -25 -53 0 -12 -4 -29 -10
-39 -5 -9 -20 -44 -32 -77 -21 -59 -75 -125 -101 -125 -23 0 -52 35 -66 78
-16 48 -23 51 -39 20 -6 -13 -11 -17 -11 -10 -1 6 -12 12 -26 12 -19 0 -25 -5
-25 -21 0 -15 -5 -19 -15 -15 -13 5 -14 2 -4 -15 9 -17 8 -20 -2 -14 -9 6 -11
2 -6 -16 3 -13 4 -34 0 -46 -4 -19 -8 -21 -19 -12 -12 9 -13 6 -8 -18 9 -43
-12 -110 -36 -116 -11 -3 -20 -13 -20 -24 0 -10 -11 -31 -25 -47 -14 -17 -21
-32 -16 -36 11 -6 3 -50 -8 -50 -4 0 -11 4 -16 8 -6 4 -27 14 -48 21 -37 12
-39 12 -66 -17 -15 -16 -36 -32 -47 -36 -16 -6 -16 -9 -4 -16 12 -8 12 -10 1
-10 -9 0 -10 -4 -4 -13 14 -18 7 -66 -13 -88 -16 -18 -16 -19 4 -19 28 0 29
-17 2 -25 -11 -3 -20 -11 -20 -16 0 -5 -5 -9 -11 -9 -7 0 -21 -10 -33 -23 -12
-13 -36 -29 -54 -35 -17 -6 -42 -20 -54 -31 -27 -26 -33 -26 -35 -2 -1 12 7
21 20 25 18 5 19 8 8 15 -12 8 -10 19 12 65 15 31 27 59 27 63 0 3 12 31 27
61 26 53 37 112 22 112 -5 0 -14 -19 -20 -42 -6 -24 -22 -53 -35 -65 -15 -13
-20 -24 -13 -28 7 -5 7 -11 0 -19 -6 -7 -8 -15 -5 -19 3 -3 0 -15 -6 -27 -6
-12 -14 -19 -17 -17 -2 3 0 15 7 26 8 16 8 21 -2 22 -10 0 -10 2 0 6 6 2 12 9
12 14 0 5 -9 4 -19 -3 -11 -7 -18 -15 -15 -19 2 -4 0 -10 -5 -13 -5 -3 -7 13
-5 37 3 23 9 44 14 45 6 2 10 14 10 27 0 13 7 31 16 40 9 9 14 19 11 22 -4 3
-1 15 5 27 7 11 11 25 10 30 -2 5 4 26 12 48 9 21 17 41 18 46 2 4 5 6 8 5 3
0 6 42 8 95 1 54 7 117 12 142 34 166 59 263 70 274 6 6 10 18 10 28 0 10 5
18 10 18 6 0 10 7 10 15 0 8 9 24 20 35 12 12 19 28 18 38 -2 11 3 17 15 16
13 -1 16 3 12 16 -3 11 0 20 10 24 9 3 15 18 15 34 0 16 7 35 15 42 8 7 15 18
15 25 0 7 6 18 14 24 8 7 18 26 21 42 4 17 13 33 21 36 8 3 14 9 14 15 0 5 -6
6 -12 2 -14 -8 1 14 35 53 11 12 17 29 13 38 -3 9 -2 13 4 10 9 -5 28 28 35
60 2 6 17 34 35 63 30 49 42 62 39 45 -1 -5 -1 -15 0 -23 3 -18 21 24 26 60
72 498 125 688 258 940 44 83 64 114 107 167 15 18 12 38 -10 66 -23 29 -25
37 -7 37 7 0 18 -9 25 -21 7 -11 19 -18 26 -16 8 3 19 0 25 -6 8 -8 11 -7 11
4 0 8 16 23 35 33 19 11 35 23 35 28 0 4 6 8 14 8 8 0 17 6 19 13 4 9 8 9 15
-1 7 -11 10 -11 15 2 6 16 42 16 67 1z m1413 1 c8 9 56 -29 57 -44 0 -7 7 -15
16 -19 8 -3 14 -15 13 -27 -1 -11 1 -29 6 -38 9 -22 30 -24 21 -3 -7 20 2 44
17 41 28 -4 50 -24 44 -40 -4 -10 -1 -16 8 -16 17 0 20 -16 5 -25 -5 -3 -6
-13 -3 -23 6 -14 4 -15 -9 -4 -13 11 -15 7 -15 -29 0 -28 -6 -45 -17 -51 -9
-5 -16 -14 -16 -21 0 -7 -22 -57 -50 -112 -54 -109 -57 -117 -36 -134 16 -13
18 -61 3 -58 -7 1 -12 -20 -13 -53 -1 -30 0 -47 3 -37 7 27 22 20 28 -15 8
-47 3 -78 -12 -78 -7 0 -13 -9 -13 -21 0 -11 -4 -18 -8 -15 -9 5 -37 -62 -34
-81 2 -6 -2 -14 -8 -18 -5 -3 -7 0 -4 8 4 11 -1 13 -22 9 -22 -4 -24 -6 -10
-14 9 -5 16 -20 16 -34 0 -14 -4 -23 -9 -20 -11 7 -26 -11 -35 -41 -6 -19 -3
-23 13 -23 12 0 21 -4 21 -9 0 -5 -11 -8 -25 -8 -14 0 -33 -9 -41 -19 -14 -17
-15 -17 -10 -1 6 18 -9 24 -19 7 -10 -16 -25 -11 -18 6 4 12 2 15 -8 12 -8 -2
-16 -17 -17 -33 -4 -28 -30 -58 -44 -49 -4 3 -5 11 -1 19 3 8 0 15 -6 15 -7 0
-11 -20 -11 -49 0 -28 -4 -52 -9 -55 -4 -3 -6 7 -3 22 3 15 1 24 -3 19 -5 -4
-9 -26 -10 -50 0 -23 -4 -47 -8 -53 -9 -15 19 -38 38 -30 12 4 13 2 2 -14 -6
-11 -13 -16 -15 -10 -2 5 -10 10 -17 10 -7 0 -15 7 -19 15 -3 8 -11 15 -17 15
-8 0 -9 -4 0 -13 6 -8 8 -17 4 -20 -3 -4 -1 -7 6 -7 8 0 11 -6 7 -16 -5 -13
-3 -14 6 -7 19 14 62 0 67 -22 3 -20 -34 -54 -60 -55 -10 0 -19 -11 -21 -25
-4 -19 -2 -23 7 -15 8 6 15 6 23 -2 7 -7 13 -9 13 -5 1 4 3 12 4 17 1 6 3 13
4 16 0 3 6 2 11 -1 7 -4 5 -14 -4 -27 -20 -28 -3 -62 25 -55 13 4 19 1 16 -6
-3 -7 -10 -11 -16 -10 -6 2 -11 -4 -11 -12 0 -9 6 -12 15 -9 9 4 15 0 15 -10
0 -10 9 -16 23 -16 40 0 68 -12 66 -29 -4 -43 3 -73 22 -92 11 -11 22 -34 24
-50 2 -17 12 -37 22 -45 17 -12 17 -13 1 -14 -22 0 -23 -13 -3 -30 22 -18 19
-36 -10 -58 -14 -11 -25 -30 -25 -43 0 -19 -2 -21 -10 -9 -8 13 -10 13 -15 -1
-8 -20 -45 -22 -45 -2 0 10 -6 13 -16 9 -11 -4 -15 -2 -11 8 4 9 1 13 -6 11
-7 -3 -25 4 -41 14 -23 15 -34 17 -58 9 -16 -6 -32 -8 -35 -4 -3 3 -12 1 -20
-5 -10 -9 -13 -8 -13 2 -1 9 -8 6 -19 -8 -11 -13 -24 -23 -30 -23 -6 0 -11 -4
-11 -8 0 -5 -9 -18 -21 -30 -19 -21 -19 -26 -8 -80 10 -44 22 -65 51 -94 21
-20 44 -38 50 -41 7 -2 10 -8 6 -12 -4 -4 -41 0 -82 10 -72 17 -76 19 -115 74
-23 31 -53 71 -68 90 -16 19 -31 42 -35 53 -4 10 -25 44 -46 76 -43 64 -208
335 -234 385 -10 19 -22 55 -27 82 -11 58 -1 90 57 189 23 38 39 73 36 78 -9
14 -41 -10 -54 -42 -7 -17 -15 -29 -17 -26 -7 6 -42 -32 -54 -57 -7 -17 -8
-13 -4 18 3 22 28 86 55 142 52 107 60 136 35 127 -11 -5 -15 1 -15 21 0 20 4
26 15 21 11 -4 16 5 21 34 4 22 10 37 14 35 5 -3 6 -14 3 -25 -3 -11 -3 -20 0
-20 4 0 11 18 17 40 11 42 31 48 24 7 -2 -12 -1 -16 2 -9 5 10 9 10 21 1 12
-11 12 -9 2 15 -12 24 -11 29 5 38 30 17 76 71 76 89 0 7 7 4 15 -7 13 -17 14
-17 15 -1 0 9 4 17 9 17 5 0 16 3 24 6 11 4 17 -2 20 -18 4 -20 5 -19 12 9 4
18 12 30 17 27 6 -4 7 2 3 17 -7 20 -6 22 7 12 11 -10 17 -8 28 7 7 10 17 17
22 14 4 -3 8 4 8 14 0 11 6 25 14 31 8 7 13 24 12 39 -3 28 25 51 71 54 15 2
23 9 23 20 0 10 5 18 11 18 5 0 7 -4 4 -10 -3 -5 -1 -10 4 -10 17 0 13 18 -6
29 -16 9 -16 12 -3 20 8 6 12 13 8 16 -9 10 31 53 225 243 84 82 107 121 107
184 0 35 2 38 19 29 10 -6 21 -8 24 -5z m2678 -71 c12 8 49 -22 49 -40 0 -6
20 -33 45 -59 25 -27 45 -57 45 -68 0 -13 4 -17 13 -12 9 6 9 4 -1 -8 -11 -14
-10 -17 8 -23 11 -3 18 -10 16 -14 -3 -4 -1 -13 5 -21 7 -13 9 -13 9 0 1 12 2
12 10 -1 12 -21 -7 -79 -25 -79 -8 0 -16 -9 -20 -19 -10 -33 -38 -30 -57 6
-10 18 -18 41 -18 50 -1 22 -28 60 -38 53 -4 -3 -9 6 -10 19 -3 19 -6 21 -14
10 -7 -11 -9 -8 -5 9 3 12 2 22 -1 22 -10 0 -32 51 -32 72 0 10 -4 26 -9 36
-29 53 -53 117 -32 84 7 -12 11 -11 22 1 12 13 15 13 21 -5 4 -10 13 -16 19
-13z m-5401 -75 c0 -60 -4 -100 -10 -100 -6 0 -10 40 -10 100 0 60 4 100 10
100 6 0 10 -40 10 -100z m185 -20 l20 -22 5 68 c3 41 10 69 18 72 9 3 12 -21
12 -98 l0 -102 -77 72 -78 71 -5 -67 c-3 -41 -10 -69 -17 -72 -10 -3 -13 21
-13 98 l0 102 58 -50 c31 -27 66 -60 77 -72z m235 111 c0 -6 -24 -11 -52 -13
-52 -3 -53 -4 -56 -35 l-3 -33 50 0 c28 0 51 -4 51 -10 0 -5 -22 -10 -50 -10
l-50 0 0 -45 c0 -25 -4 -45 -10 -45 -6 0 -10 40 -10 100 l0 100 65 0 c36 0 65
-4 65 -9z m58 -88 c-4 -127 -22 -125 -26 2 -2 81 0 95 13 95 13 0 15 -14 13
-97z m137 18 c33 -34 63 -61 67 -61 4 0 8 32 8 70 0 40 4 70 10 70 6 0 10 -41
10 -102 l0 -101 -77 74 -78 74 -3 -73 c-2 -52 -6 -72 -15 -69 -8 2 -13 36 -15
101 -3 114 -3 114 93 17z m165 -21 c0 -60 -4 -100 -10 -100 -6 0 -10 40 -10
100 0 60 4 100 10 100 6 0 10 -40 10 -100z m210 90 c0 -5 -16 -10 -35 -10
l-34 0 -3 -87 c-2 -56 -7 -88 -15 -90 -9 -3 -13 20 -15 84 l-3 88 -32 3 c-67
7 -30 22 52 22 50 0 85 -4 85 -10z m2550 -20 c0 -18 -23 -34 -34 -23 -11 11
-6 41 7 46 17 6 27 -1 27 -23z m-355 -171 c-4 -13 -3 -19 2 -16 6 4 8 -17 5
-51 -3 -31 -8 -58 -13 -60 -4 -2 -5 -10 -2 -19 4 -10 2 -14 -4 -10 -6 4 -8 -4
-6 -21 3 -19 2 -23 -5 -13 -7 10 -11 10 -14 1 -2 -7 -9 -1 -16 14 -8 18 -8 26
-1 26 7 0 6 6 -2 18 -13 15 -12 16 4 3 25 -20 34 -5 12 19 -17 18 -17 20 -2
14 15 -5 17 1 17 43 0 27 5 54 12 61 17 17 20 15 13 -9z m-35 -56 c0 -20 -3
-24 -11 -16 -7 7 -9 19 -6 27 10 24 17 19 17 -11z m-2650 -1 c0 -5 -13 -7 -29
-4 -21 3 -33 -2 -45 -19 -20 -29 -20 -34 0 -53 23 -24 64 -21 64 4 0 11 5 20
10 20 22 0 9 -41 -15 -50 -62 -23 -115 49 -69 94 16 16 84 22 84 8z m94 -27
c8 11 16 23 16 28 0 4 5 7 10 7 6 0 -1 -17 -14 -38 -13 -21 -26 -47 -29 -58
-5 -18 -5 -18 -6 1 -1 11 -10 34 -21 50 -28 42 -25 56 4 20 24 -30 25 -30 40
-10z m76 28 c0 -5 9 -23 21 -42 l21 -34 24 41 c14 23 27 42 30 42 2 0 3 -26 3
-57 -2 -54 -2 -55 -8 -18 l-6 40 -20 -32 c-10 -18 -22 -33 -25 -33 -3 0 -14
15 -25 33 l-19 32 -7 -40 c-6 -38 -6 -37 -8 18 0 32 3 57 9 57 6 0 10 -3 10
-7z m2303 -52 c3 -15 1 -18 -11 -14 -11 5 -13 3 -7 -8 6 -11 5 -12 -5 -2 -11
10 -11 15 0 28 16 19 17 19 23 -4z m-1243 -11 c0 -5 -2 -10 -4 -10 -3 0 -8 5
-11 10 -3 6 -1 10 4 10 6 0 11 -4 11 -10z m3901 -63 c-10 -9 -11 -8 -5 6 3 10
9 15 12 12 3 -3 0 -11 -7 -18z m-2491 -41 c0 -3 -4 -8 -10 -11 -5 -3 -10 -1
-10 4 0 6 5 11 10 11 6 0 10 -2 10 -4z m-830 -41 c0 -8 -4 -15 -10 -15 -5 0
-7 7 -4 15 4 8 8 15 10 15 2 0 4 -7 4 -15z m770 -41 c0 -8 -4 -12 -10 -9 -5 3
-10 10 -10 16 0 5 5 9 10 9 6 0 10 -7 10 -16z m-235 -24 c3 -5 1 -10 -4 -10
-6 0 -11 5 -11 10 0 6 2 10 4 10 3 0 8 -4 11 -10z m61 -32 c3 -10 10 -18 15
-18 5 0 9 -8 9 -17 0 -13 -3 -14 -12 -5 -17 17 -31 15 -24 -3 3 -8 2 -15 -3
-15 -10 0 -22 32 -27 73 -3 25 -2 26 16 15 11 -7 23 -21 26 -30z m1438 -53
c-4 -8 0 -23 7 -33 13 -15 12 -16 -3 -3 -19 14 -25 51 -8 51 5 0 7 -7 4 -15z
m-14 -53 c0 -10 -6 -27 -14 -38 -13 -17 -13 -15 -3 19 13 41 17 46 17 19z
m-1480 -1 c0 -11 -31 -24 -39 -16 -3 3 1 10 9 15 19 12 30 12 30 1z m1562 -23
c-7 -7 -12 -8 -12 -2 0 6 3 14 7 17 3 4 9 5 12 2 2 -3 -1 -11 -7 -17z m-59 -3
c-3 -9 -8 -14 -10 -11 -3 3 -2 9 2 15 9 16 15 13 8 -4z m2877 -137 c0 -4 -7
-8 -15 -8 -8 0 -15 4 -15 8 0 5 7 9 15 9 8 0 15 -4 15 -9z m-1270 -53 c0 -19
-4 -35 -10 -35 -5 0 -10 16 -10 35 0 19 5 35 10 35 6 0 10 -16 10 -35z m72 13
l12 -23 7 25 c6 22 7 20 8 -12 1 -42 -5 -47 -25 -20 -13 16 -13 16 -14 0 0
-34 -20 -18 -20 17 0 40 14 45 32 13z m106 15 c-10 -2 -18 -9 -18 -14 0 -5 8
-10 18 -10 15 -1 15 -2 0 -6 -9 -2 -19 -12 -21 -21 -3 -9 -5 0 -6 21 -1 32 2
37 22 36 16 -1 18 -2 5 -6z m72 -28 c0 -19 -4 -35 -10 -35 -5 0 -10 16 -10 35
0 19 5 35 10 35 6 0 10 -16 10 -35z m73 13 l16 -23 0 23 c1 12 6 22 11 22 6 0
10 -16 8 -35 -2 -40 -5 -41 -30 -18 -17 15 -18 15 -18 0 0 -10 -4 -17 -10 -17
-5 0 -10 16 -10 35 0 40 11 45 33 13z m84 -30 c-2 -13 -4 -5 -4 17 -1 22 1 32
4 23 2 -10 2 -28 0 -40z m96 45 c-7 -2 -13 -18 -13 -34 0 -16 -4 -29 -10 -29
-5 0 -10 13 -10 29 0 16 -6 32 -12 34 -7 3 3 5 22 5 19 0 29 -2 23 -5z m62
-10 c6 -17 7 -17 16 0 6 9 14 17 18 17 9 0 -20 -69 -29 -70 -3 0 -10 16 -16
35 -11 35 -2 50 11 18z m189 8 c4 -5 -2 -7 -13 -4 -19 5 -36 -21 -25 -38 9
-15 27 -10 20 6 -3 9 0 15 9 15 8 0 15 -9 15 -21 0 -16 -5 -20 -27 -17 -28 3
-40 25 -29 54 6 15 42 19 50 5z m63 -7 c6 -15 7 -15 20 1 20 28 23 14 5 -21
l-17 -32 -16 34 c-9 19 -12 34 -7 34 5 0 11 -7 15 -16z m97 0 c8 -20 -2 -54
-15 -54 -5 0 -9 16 -9 35 0 37 13 47 24 19z m45 -21 c0 -21 -3 -32 -6 -24 -4
11 -7 11 -14 0 -4 -7 -10 -11 -13 -8 -6 6 22 69 30 69 2 0 4 -17 3 -37z m135
15 l16 -22 0 22 c0 12 5 22 10 22 6 0 10 -16 10 -35 0 -39 -5 -42 -32 -18 -17
15 -18 15 -18 0 0 -10 -4 -17 -10 -17 -5 0 -10 16 -10 35 0 40 12 45 34 13z
m83 -30 c-2 -13 -4 -5 -4 17 -1 22 1 32 4 23 2 -10 2 -28 0 -40z m103 42 c0
-5 -6 -7 -14 -4 -8 3 -17 1 -20 -4 -3 -5 3 -12 14 -15 31 -8 25 -37 -7 -36
l-28 1 25 7 25 7 -22 8 c-22 7 -30 26 -16 39 10 11 43 8 43 -3z m-4693 -272
c-3 -8 -6 -5 -6 6 -1 11 2 17 5 13 3 -3 4 -12 1 -19z m3808 -23 c47 -19 55
-45 55 -171 0 -145 -17 -173 -105 -173 -88 0 -105 28 -105 173 0 119 11 153
55 172 39 17 58 17 100 -1z m222 5 c31 -11 53 -45 53 -80 0 -16 -7 -20 -35
-20 -27 0 -35 4 -35 18 0 26 -11 34 -27 21 -20 -18 -17 -26 36 -82 26 -29 53
-62 60 -74 19 -37 13 -82 -14 -108 -54 -55 -165 -19 -165 53 0 24 5 31 26 36
30 8 40 1 46 -29 5 -30 38 -32 38 -3 0 16 -19 44 -55 80 -50 51 -55 60 -55
100 0 48 15 69 60 87 33 13 32 13 67 1z m-431 -22 c10 -10 19 -38 22 -70 6
-71 -15 -98 -81 -105 l-47 -6 0 -73 0 -74 -40 0 -40 0 0 176 0 176 85 -3 c63
-3 89 -8 101 -21z m694 -8 c0 -27 -3 -30 -30 -30 l-30 0 0 -146 0 -145 -37 3
-38 3 -3 143 -3 142 -24 0 c-21 0 -25 5 -25 30 l0 30 95 0 95 0 0 -30z m172
-125 c15 -82 30 -160 33 -172 5 -21 2 -23 -34 -23 -37 0 -39 1 -45 40 -5 31
-11 40 -26 40 -21 0 -24 -4 -34 -52 -6 -24 -11 -28 -41 -28 -20 0 -35 5 -35
11 0 7 14 86 31 176 l32 164 46 -3 46 -3 27 -150z m156 83 l31 -73 1 73 0 72
35 0 35 0 0 -176 0 -175 -27 3 c-25 3 -32 13 -60 83 l-33 80 0 -82 0 -83 -35
0 -35 0 0 175 0 175 29 0 c26 0 31 -7 59 -72z m232 -103 l0 -175 -40 0 -40 0
0 175 0 175 40 0 40 0 0 -175z m-5653 143 c-3 -13 -9 -44 -12 -71 -4 -26 -11
-50 -16 -53 -13 -7 -11 77 2 115 12 35 34 43 26 9z m2420 -110 c-3 -7 -5 -2
-5 12 0 14 2 19 5 13 2 -7 2 -19 0 -25z m-2435 -53 c-2 -14 -6 -25 -8 -25 -2
0 -4 11 -4 25 0 14 4 25 9 25 4 0 6 -11 3 -25z m2459 -28 c-8 -8 -11 -7 -11 4
0 20 13 34 18 19 3 -7 -1 -17 -7 -23z m46 -19 c-3 -8 -6 -5 -6 6 -1 11 2 17 5
13 3 -3 4 -12 1 -19z m-1677 -118 c0 -5 -4 -10 -10 -10 -5 0 -10 5 -10 10 0 6
5 10 10 10 6 0 10 -4 10 -10z m106 -117 c16 -12 5 -26 -12 -15 -14 9 -26 57
-16 66 4 5 8 -3 10 -16 2 -12 10 -28 18 -35z m-1356 -74 c0 -10 5 -21 10 -24
6 -3 10 -12 10 -18 0 -8 -3 -8 -9 1 -7 11 -9 11 -14 -2 -4 -9 -4 -23 -1 -31 4
-8 2 -15 -2 -15 -20 1 -31 17 -29 40 1 14 3 40 4 59 1 29 3 32 16 21 8 -7 15
-21 15 -31z m-1510 6 c-10 -12 -10 -18 1 -32 12 -17 12 -17 -6 -1 -15 14 -16
20 -5 32 7 9 15 16 17 16 3 0 0 -7 -7 -15z m12115 -32 c-18 -17 -18 -17 -6 0
11 14 11 20 0 35 -12 16 -12 16 6 0 19 -18 19 -18 0 -35z m-10662 -87 c4 -10
1 -13 -9 -9 -15 6 -19 23 -5 23 5 0 11 -7 14 -14z m2947 -10 c0 -3 -4 -8 -10
-11 -5 -3 -10 -1 -10 4 0 6 5 11 10 11 6 0 10 -2 10 -4z m10 -37 c-7 -11 -9
-23 -7 -26 3 -2 10 5 17 16 14 26 27 27 35 1 4 -11 11 -18 16 -15 5 4 9 -5 9
-19 0 -14 5 -28 11 -31 6 -4 8 -13 5 -21 -3 -8 0 -14 7 -15 9 0 9 -2 0 -6 -7
-2 -15 -20 -19 -39 -6 -33 -24 -48 -24 -21 0 8 -7 14 -15 15 -8 1 -22 3 -30 4
-8 1 -15 9 -15 19 0 10 -5 21 -11 24 -5 4 -8 19 -5 33 2 15 7 44 11 65 3 20
10 37 16 37 6 0 5 -8 -1 -21z m-3010 -51 c0 -16 -3 -19 -11 -11 -6 6 -8 16 -5
22 11 17 16 13 16 -11z m0 -58 c0 -5 -7 -10 -16 -10 -8 0 -12 5 -9 10 3 6 10
10 16 10 5 0 9 -4 9 -10z m1031 -163 c11 -7 19 -17 19 -23 0 -15 58 -66 105
-92 53 -29 203 -92 219 -92 7 0 21 -9 31 -20 11 -13 25 -18 37 -14 10 3 18 2
19 -3 0 -4 2 -24 5 -43 2 -23 1 -30 -5 -21 -7 11 -11 9 -20 -8 -7 -11 -19 -21
-27 -21 -8 0 -12 -4 -9 -10 3 -5 -3 -10 -15 -10 -12 0 -18 -4 -15 -10 4 -6 -1
-22 -10 -36 -9 -14 -14 -32 -11 -40 4 -10 2 -12 -6 -8 -7 5 -9 2 -5 -9 3 -8 0
-18 -8 -21 -8 -3 -22 -20 -31 -38 -9 -18 -21 -36 -26 -39 -6 -4 -6 -9 1 -13 7
-5 7 -12 -1 -26 -9 -15 -9 -24 1 -42 6 -13 13 -30 14 -38 2 -8 5 -19 9 -25 3
-5 8 -28 9 -50 2 -22 9 -43 14 -47 7 -5 7 -10 0 -15 -5 -5 -10 -15 -10 -23 0
-9 -9 -15 -21 -15 -11 0 -28 -6 -36 -13 -13 -10 -17 -10 -22 3 -3 9 -10 13
-16 10 -5 -3 -10 3 -10 14 0 10 5 21 11 23 7 2 -6 30 -31 65 -23 34 -39 67
-35 72 3 6 -1 18 -9 27 -9 8 -16 22 -16 30 0 8 -5 14 -10 14 -6 0 -10 8 -8 17
2 10 -2 18 -9 18 -15 0 -30 15 -15 15 7 0 12 5 12 10 0 6 -6 10 -13 10 -7 0
-20 15 -28 33 -9 17 -27 55 -41 82 -42 82 -58 124 -58 154 0 16 -9 49 -20 74
-17 37 -20 70 -22 198 l-3 154 49 -73 c26 -40 57 -79 67 -85z m-1051 123 c0
-5 -5 -10 -11 -10 -5 0 -7 5 -4 10 3 6 8 10 11 10 2 0 4 -4 4 -10z m1457 -42
c-2 -13 -4 -5 -4 17 -1 22 1 32 4 23 2 -10 2 -28 0 -40z m4932 -63 c28 -14 56
-68 45 -86 -3 -5 -18 -9 -33 -9 -20 0 -31 7 -39 26 -7 14 -17 22 -22 19 -23
-14 -7 -51 45 -106 48 -51 55 -62 55 -99 0 -57 -33 -90 -92 -90 -46 1 -68 12
-86 47 -19 34 -15 60 11 67 38 10 44 7 51 -24 8 -40 36 -41 36 0 0 22 -10 37
-41 62 -87 70 -94 159 -16 193 41 18 52 18 86 0z m-1539 -100 c12 -71 18 -93
23 -75 6 22 27 160 27 174 0 3 16 6 35 6 23 0 35 -5 35 -13 0 -13 -45 -269
-55 -315 -5 -20 -11 -23 -47 -20 l-42 3 -31 173 -32 173 36 -3 35 -3 16 -100z
m310 81 c0 -21 -5 -25 -37 -28 -37 -3 -38 -4 -38 -43 0 -36 3 -40 28 -43 21
-3 27 -9 27 -27 0 -18 -6 -24 -27 -27 -26 -3 -28 -7 -31 -50 l-3 -48 40 0 c39
0 41 -2 41 -30 l0 -31 -77 3 -78 3 -3 173 -2 172 80 0 c78 0 80 -1 80 -24z
m197 14 c53 -19 71 -104 33 -152 -19 -25 -19 -26 0 -94 27 -93 27 -94 -19 -94
l-39 0 -17 73 c-10 39 -20 77 -24 82 -3 6 -8 -26 -11 -70 l-5 -80 -37 -3 -38
-3 0 175 0 176 64 0 c34 0 77 -5 93 -10z m243 -13 c0 -13 -18 -77 -40 -142
-22 -65 -40 -120 -40 -122 0 -2 18 -3 40 -3 38 0 40 -2 40 -30 l0 -30 -80 0
-80 0 0 28 c0 15 18 82 40 147 22 65 40 120 40 122 0 2 -18 3 -40 3 -36 0 -40
3 -40 25 0 25 1 25 80 25 77 0 80 -1 80 -23z m118 -149 l-3 -173 -37 -3 -38
-3 0 175 0 176 40 0 40 0 -2 -172z m147 10 c0 -180 -3 -188 -76 -191 -41 -2
-44 0 -47 24 -2 20 2 28 17 32 20 5 21 12 21 152 l0 146 43 -3 42 -3 0 -157z
m215 17 c15 -77 29 -155 33 -172 6 -33 6 -33 -33 -33 -37 0 -40 2 -40 28 -1
63 -51 73 -60 12 -5 -32 -8 -35 -42 -38 -24 -2 -38 1 -38 8 0 7 14 86 31 176
l32 165 46 -3 46 -3 25 -140z m560 120 c0 -22 -4 -25 -40 -25 l-40 0 0 -45 c0
-43 1 -45 30 -45 25 0 30 -4 30 -25 0 -21 -5 -25 -30 -25 -29 0 -30 -1 -30
-50 l0 -50 40 0 c38 0 40 -2 40 -30 l0 -30 -80 0 -80 0 0 175 0 175 80 0 c79
0 80 0 80 -25z m211 -4 c23 -28 25 -88 3 -112 -15 -16 -14 -20 5 -40 30 -33
29 -99 -3 -136 -22 -25 -31 -28 -105 -31 l-81 -4 0 177 0 177 81 -4 c70 -3 83
-6 100 -27z m229 4 c0 -22 -4 -25 -40 -25 l-40 0 0 -45 c0 -43 1 -45 30 -45
25 0 30 -4 30 -25 0 -21 -5 -25 -30 -25 -29 0 -30 -1 -30 -50 l0 -50 40 0 c38
0 40 -2 40 -30 l0 -30 -80 0 -80 0 0 175 0 175 80 0 c79 0 80 0 80 -25z
m-7240 -201 c0 -8 -5 -12 -10 -9 -6 4 -8 11 -5 16 9 14 15 11 15 -7z m1160
-219 c0 -8 9 -23 20 -32 11 -10 20 -26 20 -35 0 -10 5 -26 11 -36 9 -14 7 -26
-7 -53 -14 -26 -19 -30 -22 -16 -2 9 -11 17 -21 17 -29 0 -50 50 -48 113 2 52
4 57 24 57 14 0 23 -6 23 -15z m-1646 -57 c-3 -4 -9 -8 -15 -8 -5 0 -9 4 -9 8
0 5 7 9 15 9 8 0 12 -4 9 -9z m1986 -72 c0 -3 -4 -8 -10 -11 -5 -3 -10 -1 -10
4 0 6 5 11 10 11 6 0 10 -2 10 -4z m-340 -56 c0 -5 -4 -10 -10 -10 -5 0 -10 5
-10 10 0 6 5 10 10 10 6 0 10 -4 10 -10z m50 -44 c0 -16 -18 -31 -27 -22 -8 8
5 36 17 36 5 0 10 -6 10 -14z m67 -58 c-3 -7 -5 -2 -5 12 0 14 2 19 5 13 2 -7
2 -19 0 -25z m3840 -6 c11 9 12 7 7 -8 -13 -35 -17 -37 -31 -19 -16 23 -18 44
-1 27 8 -8 15 -9 25 0z m30 -29 c-3 -10 -5 -4 -5 12 0 17 2 24 5 18 2 -7 2
-21 0 -30z m48 27 c-18 -8 -18 -9 -2 -9 24 -1 16 -25 -9 -29 -14 -2 -16 -1 -6
6 11 7 10 10 -3 16 -22 8 -9 26 18 25 21 0 21 -1 2 -9z m52 -5 c0 -8 -5 -15
-11 -16 -6 0 -2 -4 9 -9 19 -8 19 -9 -2 -9 -18 -1 -23 5 -23 24 0 14 6 25 13
25 8 0 14 -7 14 -15z m96 3 c7 -21 -4 -38 -23 -38 -23 0 -34 16 -26 35 7 18
43 20 49 3z m63 1 c4 -8 9 -7 15 2 6 10 9 5 9 -15 0 -24 -2 -27 -15 -16 -10 9
-15 9 -15 1 0 -6 -4 -11 -10 -11 -5 0 -10 11 -10 25 0 26 14 33 26 14z m79 -9
c9 -27 25 -25 26 3 0 19 1 20 12 5 10 -15 12 -15 24 0 11 15 12 14 13 -8 0
-25 -3 -26 -59 -26 -58 -1 -59 -1 -48 23 13 28 24 29 32 3z m136 -6 c6 -18 3
-21 -21 -21 -16 0 -28 3 -26 6 2 3 6 14 9 24 9 23 28 18 38 -9z m-6634 -16
c-3 -8 -6 -5 -6 6 -1 11 2 17 5 13 3 -3 4 -12 1 -19z m2317 -13 c10 -8 22 -12
26 -10 4 3 16 -7 25 -21 24 -37 13 -156 -11 -131 -4 4 -2 13 5 21 9 11 9 15
-1 18 -8 3 -12 20 -12 46 1 32 -3 43 -17 47 -10 4 -24 3 -30 -1 -7 -4 -9 -3
-5 4 3 6 2 13 -4 17 -12 7 -14 25 -2 25 4 0 16 -7 26 -15z m4 -119 c-3 -16 -1
-23 7 -20 9 4 11 -3 8 -21 -5 -24 -6 -24 -19 -8 -16 22 -18 73 -3 73 7 0 9
-10 7 -24z m-2324 -39 c6 -5 1 -6 -11 -2 -19 5 -23 2 -23 -14 0 -12 -4 -21 -8
-21 -4 0 -13 -13 -19 -30 -10 -27 -10 -29 7 -20 16 9 16 7 6 -25 -7 -19 -15
-38 -19 -41 -4 -4 -7 -16 -7 -26 0 -11 -7 -27 -16 -36 -15 -14 -15 -17 2 -29
17 -12 17 -13 -2 -13 -16 0 -17 -2 -4 -10 13 -8 12 -10 -4 -10 -13 0 -16 -5
-12 -17 4 -10 4 -14 0 -10 -4 4 -12 3 -18 -2 -14 -12 -11 95 4 157 6 24 7 48
3 55 -4 7 -12 -7 -19 -33 l-11 -45 -1 48 c0 26 4 47 10 47 6 0 7 7 4 16 -9 23
2 54 19 54 9 0 12 7 9 18 -5 15 -4 15 5 1 7 -11 7 -27 0 -53 -6 -21 -8 -40 -5
-44 3 -3 6 0 6 7 0 7 14 33 31 58 28 41 29 44 10 38 -13 -4 -21 -2 -21 5 0 8
10 10 25 8 14 -3 29 0 33 6 4 7 8 3 10 -9 3 -11 9 -24 16 -28z m2413 1 c-3 -8
-6 -5 -6 6 -1 11 2 17 5 13 3 -3 4 -12 1 -19z m-25 -48 c7 -11 17 -20 23 -20
6 0 20 -22 33 -50 13 -27 28 -49 35 -47 7 1 10 -5 8 -13 -2 -8 -3 -25 -3 -37
1 -13 -3 -23 -9 -23 -6 0 -8 -7 -5 -16 5 -14 4 -15 -9 -4 -8 7 -12 16 -9 21 3
5 -2 9 -11 9 -9 0 -13 -4 -10 -10 3 -6 -4 -10 -17 -10 l-23 0 25 21 25 21 -35
-5 c-19 -3 -29 -3 -22 0 15 6 16 33 1 33 -6 0 -9 6 -6 14 3 7 0 19 -6 25 -8 8
-8 11 2 11 9 0 10 4 4 13 -6 6 -10 19 -10 27 0 8 -3 25 -7 38 -9 28 9 30 26 2z
m-2551 -161 c-9 -22 -10 -22 -10 -3 -1 11 2 24 6 27 12 12 14 0 4 -24z m40
-132 c-10 -9 -11 -8 -5 6 3 10 9 15 12 12 3 -3 0 -11 -7 -18z m25 -138 c12
-20 6 -121 -8 -135 -12 -12 -14 -9 -13 21 1 26 -2 34 -12 31 -7 -3 -13 -1 -13
4 0 6 4 10 9 10 4 0 8 13 7 30 -1 32 -15 42 -17 13 0 -12 -2 -13 -6 -5 -11 28
37 56 53 31z m947 -42 c-5 -7 -10 -66 -13 -132 -4 -100 -7 -119 -20 -116 -8 3
-31 4 -51 3 -42 -3 -84 25 -93 62 -14 56 67 165 145 194 28 11 43 6 32 -11z
m-903 -77 c0 -5 -2 -10 -4 -10 -3 0 -8 5 -11 10 -3 6 -1 10 4 10 6 0 11 -4 11
-10z m-6 -33 c15 -14 27 -77 15 -77 -4 0 -15 10 -23 22 -12 17 -13 24 -3 31 9
7 9 10 0 14 -7 2 -13 9 -13 14 0 13 9 11 24 -4z m1436 -122 c7 -8 19 -15 26
-15 8 0 14 -9 14 -20 0 -25 -10 -25 -59 1 -26 13 -38 25 -34 35 7 18 37 18 53
-1z m-203 -47 c19 -24 10 -49 -35 -96 -42 -45 -72 -104 -72 -143 0 -11 -4 -19
-10 -19 -5 0 -13 -12 -16 -27 -4 -16 -21 -44 -39 -63 -40 -44 -68 -92 -89
-157 -22 -65 -41 -83 -61 -57 -7 10 -17 36 -20 56 -4 20 -13 42 -21 49 -8 6
-14 22 -14 34 0 40 55 148 118 233 45 61 59 87 55 103 -5 18 -3 21 10 16 11
-4 26 6 47 33 25 32 38 40 73 43 23 2 47 4 53 5 6 1 16 -4 21 -10z m2268 -58
c0 -8 -37 -42 -82 -75 -47 -34 -85 -70 -89 -83 -3 -12 -17 -25 -30 -28 -21 -5
-23 -9 -12 -22 7 -9 8 -13 2 -9 -7 4 -11 -2 -11 -18 0 -14 -5 -37 -11 -52 -6
-16 -13 -40 -16 -55 -4 -16 -10 -28 -15 -28 -19 0 -19 32 -1 72 11 24 15 44
10 46 -5 2 -6 10 -3 18 8 20 -27 18 -43 -3 -18 -26 -25 -12 -27 56 -2 61 -2
61 50 113 45 45 54 50 68 38 14 -12 21 -11 47 5 71 41 163 56 163 25z m825
-50 c13 -9 13 -10 0 -9 -8 0 -24 4 -35 9 l-20 9 20 0 c11 0 27 -4 35 -9z m117
-16 c31 -23 45 -54 24 -54 -11 0 -71 61 -71 72 0 13 12 9 47 -18z m1357 -139
c3 -8 0 -26 -6 -40 -8 -19 -8 -31 0 -48 6 -12 13 -42 16 -67 3 -25 8 -60 11
-77 12 -57 -11 -37 -40 34 -31 79 -41 147 -26 186 11 29 35 36 45 12z m-161
-167 c11 -9 16 -30 17 -73 3 -116 3 -115 -29 -115 -16 0 -31 5 -33 11 -3 9 -9
9 -24 1 -11 -6 -42 -10 -69 -10 -28 0 -43 3 -35 5 8 3 29 12 45 19 17 7 40 15
52 17 34 5 37 12 35 87 -3 73 5 85 41 58z m-4329 -162 c-5 -21 -12 -26 -35
-26 -36 0 -36 6 -1 41 30 31 46 25 36 -15z"/>
<path d="M12470 6112 c-32 -5 -40 -18 -40 -69 0 -47 17 -63 69 -63 54 0 61 8
61 65 0 30 -4 56 -8 59 -14 8 -55 12 -82 8z m80 -22 c0 -5 -3 -10 -8 -10 -4 0
-7 -15 -7 -32 0 -30 -3 -33 -32 -36 -65 -6 -66 73 0 81 17 2 35 5 40 5 4 1 7
-2 7 -8z"/>
<path d="M12474 6059 c-8 -14 21 -43 35 -35 19 12 13 46 -8 46 -11 0 -23 -5
-27 -11z"/>
<path d="M6012 5890 c0 -14 2 -19 5 -12 2 6 2 18 0 25 -3 6 -5 1 -5 -13z"/>
<path d="M7482 5890 c0 -14 2 -19 5 -12 2 6 2 18 0 25 -3 6 -5 1 -5 -13z"/>
<path d="M4670 5063 c-8 -4 -20 -13 -27 -22 -11 -14 -12 -14 -13 -1 0 11 -13
16 -45 17 -45 2 -45 2 -43 -30 2 -42 35 -97 58 -97 11 0 23 14 33 39 21 52 38
62 32 19 l-5 -33 14 30 c9 17 15 38 16 48 0 9 5 17 10 17 6 0 10 5 10 10 0 11
-16 12 -40 3z"/>
<path d="M4655 4880 c3 -5 8 -10 11 -10 2 0 4 5 4 10 0 6 -5 10 -11 10 -5 0
-7 -4 -4 -10z"/>
<path d="M4650 4550 c0 -5 5 -10 11 -10 5 0 7 5 4 10 -3 6 -8 10 -11 10 -2 0
-4 -4 -4 -10z"/>
<path d="M4605 3969 c-4 -6 -5 -12 -2 -15 2 -3 7 2 10 11 7 17 1 20 -8 4z"/>
<path d="M2136 4813 c-14 -50 -17 -93 -6 -110 10 -16 11 -15 6 8 -5 22 -2 27
19 31 17 4 25 0 28 -11 2 -9 4 10 4 42 1 53 0 57 -22 57 -14 0 -26 -7 -29 -17z"/>
<path d="M2075 4650 c-3 -5 -2 -18 4 -27 7 -14 9 -12 8 10 -2 30 -3 31 -12 17z"/>
<path d="M740 2765 c0 -8 2 -15 4 -15 2 0 6 7 10 15 3 8 1 15 -4 15 -6 0 -10
-7 -10 -15z"/>
<path d="M717 2720 c-3 -11 -3 -20 -1 -20 2 0 8 9 14 20 6 11 7 20 2 20 -6 0
-12 -9 -15 -20z"/>
<path d="M705 2679 c-4 -6 -5 -12 -2 -15 2 -3 7 2 10 11 7 17 1 20 -8 4z"/>
<path d="M3195 4801 c-3 -5 -1 -12 5 -16 12 -7 30 2 30 16 0 12 -27 12 -35 0z"/>
<path d="M2877 4759 c7 -7 15 -10 18 -7 3 3 -2 9 -12 12 -14 6 -15 5 -6 -5z"/>
<path d="M2978 4753 c7 -3 16 -2 19 1 4 3 -2 6 -13 5 -11 0 -14 -3 -6 -6z"/>
<path d="M3100 4729 c0 -6 -7 -9 -15 -5 -16 6 -19 -3 -7 -19 9 -13 42 -15 42
-3 0 6 7 8 14 5 10 -4 13 -1 9 9 -4 12 -8 12 -21 2 -13 -11 -15 -10 -9 5 3 9
2 17 -3 17 -6 0 -10 -5 -10 -11z"/>
<path d="M3090 4670 c0 -5 5 -10 11 -10 5 0 7 5 4 10 -3 6 -8 10 -11 10 -2 0
-4 -4 -4 -10z"/>
<path d="M3160 4629 c0 -11 4 -18 10 -14 5 3 7 12 3 20 -7 21 -13 19 -13 -6z"/>
<path d="M3220 4480 c0 -5 5 -10 11 -10 5 0 7 5 4 10 -3 6 -8 10 -11 10 -2 0
-4 -4 -4 -10z"/>
<path d="M3166 4457 c3 -10 9 -15 12 -12 3 3 0 11 -7 18 -10 9 -11 8 -5 -6z"/>
<path d="M3190 4460 c0 -5 5 -10 10 -10 6 0 10 5 10 10 0 6 -4 10 -10 10 -5 0
-10 -4 -10 -10z"/>
<path d="M3120 4440 c0 -5 5 -10 11 -10 5 0 7 5 4 10 -3 6 -8 10 -11 10 -2 0
-4 -4 -4 -10z"/>
<path d="M2461 4369 c0 -9 -7 -22 -15 -28 -11 -10 -15 -8 -19 6 -2 10 -4 2 -3
-18 1 -21 4 -35 8 -33 4 3 14 -8 21 -23 l15 -27 13 43 c9 30 9 45 2 49 -6 4
-13 16 -16 27 -3 14 -5 15 -6 4z"/>
<path d="M3011 4194 c0 -11 3 -14 6 -6 3 7 2 16 -1 19 -3 4 -6 -2 -5 -13z"/>
<path d="M3050 3670 c0 -5 5 -10 11 -10 5 0 7 5 4 10 -3 6 -8 10 -11 10 -2 0
-4 -4 -4 -10z"/>
<path d="M5986 4903 c-6 -14 -5 -15 5 -6 7 7 10 15 7 18 -3 3 -9 -2 -12 -12z"/>
<path d="M5995 4870 c3 -5 8 -10 11 -10 2 0 4 5 4 10 0 6 -5 10 -11 10 -5 0
-7 -4 -4 -10z"/>
<path d="M6774 4017 c-2 -7 -3 -60 -2 -118 3 -96 4 -104 23 -104 18 0 20 8 23
95 2 52 0 105 -3 118 -6 24 -33 30 -41 9z"/>
<path d="M6530 3975 c0 -29 4 -45 13 -45 21 0 36 15 38 35 4 44 -1 55 -26 55
-23 0 -25 -4 -25 -45z"/>
<path d="M7420 3920 c0 -14 -3 -35 -6 -47 -5 -17 -2 -23 10 -23 18 0 22 54 6
80 -8 12 -10 10 -10 -10z"/>
<path d="M6950 3020 c0 -27 4 -50 9 -50 29 0 41 14 41 50 0 36 -12 50 -41 50
-5 0 -9 -22 -9 -50z"/>
<path d="M7671 2958 c-1 -20 -4 -43 -7 -52 -4 -11 -1 -16 10 -16 18 0 21 49 6
85 -7 16 -9 13 -9 -17z"/>
<path d="M8420 3025 c0 -46 13 -58 38 -33 25 25 8 78 -25 78 -9 0 -13 -15 -13
-45z"/>
<path d="M8420 2879 c0 -47 2 -50 23 -47 18 2 23 10 25 42 3 38 -8 56 -35 56
-9 0 -13 -17 -13 -51z"/>
<path d="M6820 2365 c0 -8 5 -15 10 -15 6 0 10 7 10 15 0 8 -4 15 -10 15 -5 0
-10 -7 -10 -15z"/>
<path d="M360 2140 c0 -5 5 -10 10 -10 6 0 10 5 10 10 0 6 -4 10 -10 10 -5 0
-10 -4 -10 -10z"/>
<path d="M12735 60 c4 -6 11 -8 16 -5 14 9 11 15 -7 15 -8 0 -12 -5 -9 -10z"/>
</g>
</svg>
