<?xml version="1.0" standalone="no"?>
<!DOCTYPE svg PUBLIC "-//W3C//DTD SVG 20010904//EN"
 "http://www.w3.org/TR/2001/REC-SVG-20010904/DTD/svg10.dtd">
<svg version="1.0" xmlns="http://www.w3.org/2000/svg"
 width="1080.000000pt" height="1080.000000pt" viewBox="0 0 1080.000000 1080.000000"
 preserveAspectRatio="xMidYMid meet">

<g transform="translate(0.000000,1080.000000) scale(0.100000,-0.100000)"
fill="#000000" stroke="none">
<path d="M0 5400 l0 -5400 3028 2 3027 3 3 34 c2 19 11 41 20 47 15 11 14 12
-6 7 -13 -3 -26 -12 -29 -19 -8 -21 -22 -17 -20 6 1 12 8 20 20 20 13 0 17 5
13 16 -3 9 -6 20 -6 25 0 5 -5 9 -10 9 -6 0 -9 -4 -8 -9 2 -5 -1 -9 -7 -10 -5
-1 -10 5 -10 11 0 7 -13 16 -30 19 -23 5 -25 7 -7 8 12 0 22 6 22 12 0 5 -5 7
-10 4 -18 -11 -28 5 -21 33 6 19 13 26 27 24 15 -3 17 -1 7 9 -17 17 -17 47 0
46 35 -1 58 4 53 12 -3 5 -15 7 -25 4 -11 -3 -28 0 -38 7 -16 10 -16 11 0 6
23 -7 47 3 47 20 0 8 7 14 15 14 8 0 15 7 15 15 0 8 3 16 8 16 40 7 59 5 70
-9 14 -18 16 -4 3 17 -5 8 -16 11 -25 8 -12 -5 -20 1 -26 19 -12 31 -12 34 -1
34 5 0 11 -8 14 -19 3 -14 11 -17 30 -14 23 5 24 7 12 20 -20 20 -19 34 3 26
10 -4 5 5 -13 22 l-29 28 27 -5 c24 -5 27 -3 21 16 -6 20 -6 20 8 2 15 -19 38
-15 38 7 0 8 -3 8 -9 -2 -5 -8 -11 -9 -15 -3 -8 13 19 23 42 16 14 -5 15 -4 2
5 -8 6 -25 11 -37 11 -13 0 -23 5 -23 10 0 6 4 10 10 10 5 0 7 7 4 15 -5 13
-139 15 -1116 15 -1039 0 -1110 -1 -1104 -17 6 -16 6 -16 -12 0 -16 14 -42 17
-175 17 -116 0 -157 -3 -157 -12 0 -9 -3 -9 -12 0 -9 9 -178 12 -701 12 -650
0 -688 1 -685 18 3 16 109 17 2000 22 1098 3 2000 8 2004 13 4 4 -2 7 -14 7
-12 0 -22 5 -22 10 0 6 14 10 30 10 27 0 30 3 24 24 -4 18 -1 25 16 29 12 3
24 15 27 26 3 12 9 21 14 21 5 0 9 10 10 23 1 21 1 21 8 -3 7 -24 8 -24 32 17
13 24 30 43 37 43 6 0 12 8 12 18 0 9 9 23 20 30 11 7 20 18 20 25 0 7 19 20
42 28 23 9 46 24 52 35 19 33 48 54 78 54 20 0 28 5 28 18 0 21 47 46 117 62
29 7 64 21 78 32 16 12 32 17 45 13 29 -9 80 4 80 21 0 8 15 16 40 20 22 4 40
12 40 18 1 6 7 0 15 -14 l14 -25 12 35 13 35 12 -30 c7 -17 13 -23 14 -13 0
11 6 15 19 11 10 -3 30 3 44 12 21 14 47 16 139 14 142 -3 192 -3 245 3 25 2
48 -1 59 -9 22 -16 54 -17 54 -1 0 6 6 3 14 -8 15 -19 15 -19 30 1 12 16 17
17 24 7 5 -8 12 -13 16 -13 3 1 14 1 24 0 13 0 12 -3 -6 -11 -12 -6 -22 -14
-22 -17 0 -11 44 -8 52 3 7 11 145 -10 150 -23 2 -5 23 -10 48 -14 25 -3 37
-3 28 0 -19 5 -25 23 -8 23 5 0 24 -9 42 -20 18 -11 43 -20 56 -20 14 0 26 -8
31 -22 8 -20 10 -21 16 -5 9 21 28 22 45 3 6 -8 21 -16 33 -18 12 -2 21 -10
19 -17 -2 -10 4 -12 23 -7 18 5 25 2 25 -8 0 -17 73 -33 78 -17 2 6 12 2 24
-9 12 -11 18 -25 15 -34 -8 -20 7 -21 27 -1 17 17 36 20 36 5 0 -5 -4 -10 -10
-10 -5 0 -10 -4 -10 -9 0 -5 9 -7 19 -4 13 3 23 -2 30 -15 6 -11 18 -22 26
-26 13 -5 15 -1 10 15 -6 18 -5 19 14 7 12 -7 21 -17 21 -22 0 -4 9 -6 21 -3
14 4 19 2 16 -8 -7 -18 64 -49 93 -40 19 6 21 4 15 -14 -9 -29 11 -27 40 5 31
33 32 23 4 -18 -22 -30 -22 -30 -1 -24 15 5 29 -1 52 -24 26 -26 34 -29 47
-19 12 11 18 9 33 -10 9 -14 22 -21 29 -17 7 5 11 -2 11 -18 0 -14 -5 -26 -11
-26 -5 0 -7 -5 -3 -11 5 -8 9 -8 14 1 10 17 63 -18 56 -36 -3 -8 1 -14 10 -14
8 0 12 5 9 10 -3 6 1 10 10 10 9 0 13 -4 10 -10 -4 -6 9 -11 32 -11 l38 -2
-40 -7 c-38 -6 -39 -6 -10 -11 17 -2 29 -9 28 -16 -2 -9 86 -12 355 -12 263 0
349 3 328 11 -21 8 -25 13 -15 20 9 5 5 6 -14 2 -17 -4 -27 -2 -27 5 0 6 -11
11 -24 11 -12 0 -43 11 -67 23 -24 13 -48 23 -54 23 -5 -1 -18 15 -28 34 -15
31 -15 35 -1 38 8 2 23 -3 32 -10 9 -8 52 -32 94 -53 42 -21 75 -41 73 -44 -1
-3 9 -6 23 -7 15 -1 50 -12 77 -25 43 -21 65 -24 160 -24 l110 0 3 3647 2
3646 25 44 25 43 0 -310 c0 -229 -3 -314 -12 -323 -9 -9 -9 -12 0 -12 9 0 12
-760 12 -3390 l0 -3390 -512 -1 c-282 -1 -503 -4 -490 -6 23 -5 31 -22 10 -24
-7 -1 -2 -4 12 -8 14 -4 24 -13 23 -19 -2 -8 5 -9 23 -2 26 10 36 6 72 -32 9
-10 22 -18 28 -18 7 0 14 -6 17 -12 3 -10 8 -9 22 2 17 14 18 13 13 -6 -4 -17
2 -26 31 -41 20 -10 40 -29 46 -41 12 -26 24 -29 27 -4 0 9 2 22 3 27 2 6 3
16 4 24 1 11 4 11 16 1 9 -7 13 -21 10 -31 -3 -9 -1 -20 5 -24 7 -5 5 -12 -7
-21 -17 -12 -17 -13 0 -14 9 0 17 -4 17 -10 0 -5 10 -10 23 -10 12 0 28 -9 35
-20 7 -12 8 -20 2 -20 -5 0 -10 5 -10 10 0 6 -5 10 -10 10 -6 0 -5 -8 2 -20 7
-11 22 -20 34 -20 14 0 27 -11 38 -32 8 -18 16 -27 16 -20 0 6 5 12 11 12 5 0
8 -4 4 -9 -3 -5 0 -13 6 -16 5 -4 8 -13 5 -20 -3 -9 5 -12 30 -10 29 3 34 0
34 -17 0 -12 5 -18 13 -15 14 5 17 -30 4 -50 -5 -8 -4 -13 2 -13 6 0 11 5 11
10 0 6 7 10 15 10 18 0 20 -26 3 -34 -7 -3 -3 -3 9 0 15 3 32 -5 57 -28 20
-18 36 -38 36 -45 0 -9 105 -12 440 -13 l440 -1 0 5401 0 5400 -3329 0 c-2625
0 -3331 -3 -3334 -13 -4 -9 -6 -8 -6 2 -1 11 -4 11 -16 1 -10 -9 -15 -9 -15
-1 0 6 -4 11 -10 11 -5 0 -9 -3 -9 -7 3 -20 -2 -43 -10 -43 -4 0 -6 11 -3 25
4 22 1 25 -24 24 -24 -1 -25 -2 -6 -6 34 -7 26 -23 -11 -23 -26 0 -36 -6 -44
-23 -15 -32 4 -56 37 -46 14 4 19 7 13 8 -7 1 -13 6 -13 11 0 6 19 10 43 9 40
-1 41 -1 14 -11 -19 -7 -26 -15 -23 -25 4 -11 2 -13 -9 -10 -8 4 -17 2 -20 -4
-4 -5 -10 -7 -15 -4 -4 3 -6 -4 -3 -14 4 -16 0 -19 -21 -17 -14 2 -23 0 -21
-5 10 -15 48 -5 53 14 4 16 11 18 39 14 29 -5 33 -4 23 8 -7 8 -10 20 -7 27 3
8 9 2 17 -14 11 -23 15 -25 27 -12 8 7 11 18 8 24 -3 5 -1 10 4 10 26 0 -1
-60 -27 -61 -14 0 -13 -2 3 -8 11 -5 22 -5 25 -1 3 5 18 -3 33 -16 30 -25 29
-27 -17 -24 -22 1 -27 -2 -23 -13 3 -9 2 -17 -3 -19 -12 -4 13 -54 26 -51 5 1
10 -9 10 -22 1 -16 -2 -22 -12 -18 -8 3 -17 -2 -20 -11 -3 -9 -10 -16 -16 -16
-5 0 -6 5 -3 10 6 10 0 13 -30 13 -28 0 -35 -3 -35 -12 0 -5 9 -7 21 -4 12 4
25 0 30 -8 11 -19 82 -21 75 -2 -3 7 -1 13 3 13 5 0 12 -7 15 -16 9 -22 8 -26
-5 -18 -8 4 -9 -1 -5 -17 6 -20 5 -21 -4 -6 -6 9 -16 17 -22 17 -7 0 -6 -5 2
-15 9 -11 9 -15 1 -15 -6 0 -14 7 -17 15 -4 10 -14 13 -28 9 -17 -4 -25 1 -34
18 -11 22 -11 21 -5 -6 4 -22 3 -27 -7 -21 -9 6 -11 4 -6 -4 5 -7 15 -10 23
-7 16 6 15 -2 -2 -49 -7 -19 -7 -19 6 -2 19 24 41 14 68 -31 14 -24 20 -29 15
-13 -4 16 -3 21 5 17 6 -4 11 -2 11 4 0 7 -7 10 -15 6 -9 -3 -15 0 -15 8 0 9
9 13 25 11 18 -1 29 4 37 18 10 20 11 20 24 2 8 -10 14 -26 14 -34 -1 -10 -6
-7 -15 9 -16 28 -21 19 -5 -10 6 -11 17 -17 25 -14 8 4 15 1 15 -7 0 -7 3 -10
6 -7 3 4 1 16 -6 27 -6 12 -7 21 -1 21 5 0 11 -7 15 -15 3 -8 10 -15 16 -15 6
0 3 11 -6 24 -9 15 -21 22 -30 19 -8 -3 -14 0 -14 6 0 6 11 11 25 11 18 0 26
-7 31 -25 3 -14 13 -25 22 -25 8 0 12 -3 8 -7 -7 -8 -11 -9 -37 -12 -5 0 -7
-6 -4 -11 4 -6 11 -8 16 -5 5 4 9 1 9 -5 0 -6 -12 -11 -27 -10 -43 3 -63 1
-63 -7 0 -5 23 -8 51 -9 29 0 54 -6 59 -13 4 -8 25 -12 53 -10 26 2 49 0 53
-4 4 -4 -17 -8 -47 -9 -30 -1 -63 -3 -74 -4 -11 -1 -30 -2 -43 -3 -19 -1 -21
-3 -10 -15 9 -10 17 -11 26 -4 8 7 12 7 12 -2 0 -9 3 -10 13 -1 10 8 17 7 25
-1 9 -9 12 -9 12 1 0 11 3 11 15 1 12 -10 15 -10 15 1 0 11 2 11 8 2 6 -10
438 -13 1946 -14 l1938 -1 -42 -24 -42 -24 -2062 -1 c-1133 -1 -2050 -5 -2036
-9 14 -4 41 -9 60 -10 35 -2 35 -2 6 -9 -30 -6 -49 -31 -24 -31 8 0 20 6 28
13 8 7 8 4 -2 -11 -16 -23 -13 -66 3 -56 5 3 6 -2 3 -10 -3 -9 -15 -16 -25
-16 -10 0 -19 -3 -19 -8 0 -10 31 -55 44 -64 7 -5 7 -8 -1 -8 -9 0 -13 -23
-13 -80 0 -47 -4 -80 -10 -80 -6 0 -5 -8 2 -20 10 -16 10 -24 0 -40 -7 -12 -8
-20 -2 -20 5 0 10 -18 10 -40 0 -23 -5 -40 -11 -40 -11 0 -9 -28 6 -62 5 -14
2 -18 -12 -18 -13 0 -25 -14 -37 -41 -17 -39 -17 -41 1 -61 18 -20 17 -21 -26
-59 -30 -27 -42 -45 -39 -57 3 -11 -3 -36 -13 -57 -13 -27 -16 -41 -8 -46 15
-9 -7 -50 -24 -44 -16 6 -38 -8 -41 -27 -3 -22 -92 -118 -108 -118 -5 0 -8
-13 -8 -29 0 -27 -5 -32 -60 -52 -33 -12 -61 -26 -61 -30 -1 -5 -2 -15 -3 -21
0 -7 -13 -13 -29 -14 -15 -1 -35 -8 -45 -18 -10 -9 -22 -16 -26 -16 -4 0 -15
-7 -24 -16 -11 -12 -27 -15 -56 -11 -22 3 -34 2 -27 -2 9 -6 1 -13 -26 -24
-32 -13 -39 -13 -41 -1 -4 18 -5 18 -54 -6 -30 -14 -62 -20 -115 -20 -58 0
-73 -3 -73 -15 0 -12 -14 -15 -65 -15 -37 0 -65 -4 -65 -10 0 -5 -7 -10 -15
-10 -9 0 -15 9 -15 25 0 24 -3 25 -57 25 -70 0 -336 31 -343 40 -3 4 -14 12
-25 18 -14 8 -15 11 -5 12 10 0 7 5 -8 16 -20 14 -29 14 -105 -4 -77 -19 -168
-37 -312 -61 -112 -20 -289 -31 -503 -34 -180 -2 -214 0 -222 13 -16 24 -11
38 13 43 15 4 13 5 -8 4 -17 -1 -35 2 -42 6 -7 4 -69 8 -137 9 -69 0 -123 5
-120 9 3 5 16 9 29 9 19 0 23 5 22 28 -2 35 -12 42 -67 42 -44 1 -101 22 -84
32 5 3 41 11 79 18 91 16 254 49 283 56 14 4 22 2 22 -6 0 -8 15 -10 53 -5 52
6 103 10 270 21 49 3 149 6 223 7 74 1 134 5 134 10 0 4 -16 7 -35 7 -19 0
-35 5 -35 11 0 7 -11 9 -28 6 -31 -6 -58 5 -49 21 4 5 19 7 34 5 24 -4 25 -3
10 7 -17 11 -53 8 -227 -21 -36 -5 -81 -12 -100 -14 -19 -2 -43 -6 -52 -10
-23 -9 -24 17 -3 35 14 12 14 15 0 30 -8 9 -15 22 -15 28 0 14 -55 24 -100 19
-43 -6 -268 -66 -295 -79 -17 -8 -17 -7 2 10 19 17 20 21 7 26 -9 3 -28 6 -42
6 l-27 1 25 15 25 15 -25 -6 c-14 -3 -49 -10 -79 -15 -30 -5 -59 -14 -65 -20
-6 -6 -16 -4 -28 7 -16 15 -23 14 -90 -10 -40 -14 -74 -25 -75 -23 -2 1 20 13
47 26 28 13 50 27 50 31 0 11 -68 32 -80 24 -5 -3 -10 1 -10 10 0 8 7 18 16
22 10 3 12 8 5 12 -6 4 -2 12 9 19 12 7 20 8 20 2 0 -5 5 -10 11 -10 6 0 9 6
6 14 -5 12 41 56 59 56 3 0 27 15 53 34 146 107 263 177 328 196 34 11 41 16
32 27 -9 10 -7 13 9 13 11 0 22 -3 25 -7 2 -5 2 -3 1 4 -2 6 2 14 9 16 7 3 -3
8 -21 12 -18 4 -35 12 -38 16 -9 16 -32 10 -76 -19 -24 -15 -60 -37 -80 -47
-21 -11 -38 -23 -38 -27 0 -5 -5 -8 -10 -8 -6 0 -44 -22 -86 -50 -41 -27 -82
-50 -90 -50 -8 0 -14 -4 -14 -9 0 -11 -80 -64 -87 -58 -7 8 39 47 49 41 4 -3
8 0 8 6 0 6 11 16 25 22 31 14 31 22 3 35 -26 12 -88 6 -88 -9 0 -5 -8 -8 -17
-7 -26 4 -104 -22 -135 -45 -15 -11 -31 -16 -35 -11 -5 4 -3 10 3 12 6 2 20
11 30 19 18 14 16 15 -18 12 -31 -3 -38 -1 -38 14 0 10 5 18 10 18 6 0 10 7
10 16 0 8 -5 12 -10 9 -6 -3 -10 0 -10 7 0 9 -3 9 -10 -2 -7 -11 -10 -11 -10
-2 0 7 -4 10 -10 7 -7 -4 -10 -977 -10 -2887 0 -2622 -1 -2880 -16 -2874 -9 3
-20 6 -25 6 -5 0 -9 1277 -9 3235 l0 3235 203 2 c111 1 215 1 231 0 50 -4 18
12 -37 19 l-52 6 65 3 65 2 -45 13 c-25 7 -37 13 -27 14 28 2 20 29 -10 33
-18 2 -27 8 -25 17 2 7 -4 21 -13 31 -13 15 -13 17 0 17 8 0 15 -6 15 -14 0
-7 9 -13 20 -13 11 0 20 5 20 11 0 5 -4 8 -10 4 -5 -3 -18 3 -30 15 -11 11
-15 20 -10 20 14 0 13 27 -2 36 -7 4 -8 3 -4 -4 5 -8 -2 -12 -21 -11 -15 0
-22 3 -15 6 19 7 14 37 -9 56 -16 14 -19 25 -14 47 5 22 3 32 -9 36 -23 9 -19
24 7 25 21 1 21 1 -3 9 l-25 8 25 1 c21 2 19 4 -14 16 -44 16 -60 34 -45 52 6
7 8 17 4 23 -13 21 -25 -2 -25 -50 0 -27 -4 -51 -9 -54 -4 -3 -14 -40 -21 -83
-7 -43 -17 -86 -22 -96 -14 -27 -28 -10 -21 25 4 22 2 34 -10 42 -13 10 -14
19 -5 56 6 25 15 53 20 64 7 13 6 21 -3 27 -10 6 -10 10 0 23 8 9 10 26 6 45
-3 17 -2 32 4 36 6 3 11 26 11 51 l0 44 -118 0 c-80 0 -122 -4 -130 -12 -10
-10 -17 -10 -32 0 -14 9 -87 12 -255 12 l-235 0 0 -5400z m504 5364 c25 -9 10
-22 -20 -16 -19 3 -22 7 -12 13 16 11 13 10 32 3z m3653 -16 c-3 -8 -6 -5 -6
6 -1 11 2 17 5 13 3 -3 4 -12 1 -19z m-107 2 c0 -5 -11 -10 -25 -10 -18 0 -23
-4 -19 -15 4 -8 2 -15 -3 -15 -18 0 -22 12 -12 31 10 20 59 27 59 9z m70 -10
c12 -23 5 -26 -16 -6 -16 17 -18 26 -4 26 5 0 14 -9 20 -20z m120 0 c0 -5 -4
-10 -10 -10 -5 0 -10 5 -10 10 0 6 5 10 10 10 6 0 10 -4 10 -10z m-3727 -31
c-5 -18 -7 -19 -15 -5 -6 11 -17 14 -34 10 -13 -3 -24 -2 -24 2 0 5 18 10 39
12 36 2 39 0 34 -19z m-23 -13 c0 -3 -4 -8 -10 -11 -5 -3 -10 -1 -10 4 0 6 5
11 10 11 6 0 10 -2 10 -4z m3675 -6 c-3 -5 -1 -10 4 -10 6 0 11 -4 11 -10 0
-5 -9 -10 -20 -10 -23 0 -26 10 -8 28 15 15 21 16 13 2z m54 -21 c-8 -5 -10
-9 -5 -9 6 0 0 -9 -13 -21 -12 -12 -25 -18 -29 -14 -4 4 -1 10 6 12 7 3 17 16
23 30 5 14 14 21 20 17 8 -4 7 -9 -2 -15z m-3729 -39 c0 -5 -2 -10 -4 -10 -3
0 -8 5 -11 10 -3 6 -1 10 4 10 6 0 11 -4 11 -10z m3670 -56 c0 -8 -5 -12 -10
-9 -6 4 -8 11 -5 16 9 14 15 11 15 -7z m90 6 c0 -5 -2 -10 -4 -10 -3 0 -8 5
-11 10 -3 6 -1 10 4 10 6 0 11 -4 11 -10z m-3392 -23 c2 -12 -1 -15 -12 -11
-19 7 -22 38 -3 32 6 -3 13 -12 15 -21z m3352 -7 c0 -5 -2 -10 -4 -10 -3 0 -8
5 -11 10 -3 6 -1 10 4 10 6 0 11 -4 11 -10z m21 -87 c-12 -20 -14 -14 -5 12 4
9 9 14 11 11 3 -2 0 -13 -6 -23z m249 -47 c0 -5 -7 -1 -15 10 -8 10 -14 24
-14 29 0 6 6 1 14 -9 8 -11 15 -24 15 -30z m-3603 12 c-3 -8 -6 -5 -6 6 -1 11
2 17 5 13 3 -3 4 -12 1 -19z m3343 2 c0 -5 -2 -10 -4 -10 -3 0 -8 5 -11 10 -3
6 -1 10 4 10 6 0 11 -4 11 -10z m37 4 c-3 -3 -12 -4 -19 -1 -8 3 -5 6 6 6 11
1 17 -2 13 -5z m117 -24 c-22 -9 -29 -6 -20 9 4 6 14 7 23 4 15 -6 14 -7 -3
-13z m-34 6 c0 -3 -4 -8 -10 -11 -5 -3 -10 -1 -10 4 0 6 5 11 10 11 6 0 10 -2
10 -4z m-90 -16 c0 -5 -2 -10 -4 -10 -3 0 -8 5 -11 10 -3 6 -1 10 4 10 6 0 11
-4 11 -10z m-117 -20 c14 -16 14 -20 2 -20 -8 0 -19 9 -25 20 -6 11 -7 20 -3
20 5 0 16 -9 26 -20z m290 -30 c-6 -7 -23 23 -23 40 0 8 6 4 13 -10 8 -14 12
-27 10 -30z m-89 7 c7 -6 6 -7 -4 -4 -8 2 -16 12 -17 23 -2 13 -1 15 4 4 3 -8
11 -19 17 -23z m46 29 c0 -11 -19 -15 -25 -6 -3 5 1 10 9 10 9 0 16 -2 16 -4z
m-180 -14 c0 -4 -9 -8 -20 -8 -11 0 -20 4 -20 8 0 4 9 8 20 8 11 0 20 -4 20
-8z m5540 -2 c0 -5 -4 -10 -10 -10 -5 0 -10 5 -10 10 0 6 5 10 10 10 6 0 10
-4 10 -10z m-5360 -20 c0 -5 -4 -10 -10 -10 -5 0 -10 5 -10 10 0 6 5 10 10 10
6 0 10 -4 10 -10z m-3620 -30 c0 -5 -10 -10 -22 -9 -22 0 -22 1 -3 9 11 5 21
9 23 9 1 1 2 -3 2 -9z m3646 -28 c-6 -5 -36 23 -36 34 0 4 9 -1 20 -11 11 -10
18 -20 16 -23z m81 6 c-3 -8 -6 -5 -6 6 -1 11 2 17 5 13 3 -3 4 -12 1 -19z
m-137 -8 c0 -5 -4 -10 -10 -10 -5 0 -10 5 -10 10 0 6 5 10 10 10 6 0 10 -4 10
-10z m39 -29 c-1 -13 -2 -13 -6 2 -2 9 -9 17 -14 17 -5 0 -9 5 -9 11 0 8 5 8
15 -1 8 -7 14 -20 14 -29z m-24 -1 c3 -5 1 -10 -4 -10 -6 0 -11 5 -11 10 0 6
2 10 4 10 3 0 8 -4 11 -10z m88 -57 c-7 -2 -19 -2 -25 0 -7 3 -2 5 12 5 14 0
19 -2 13 -5z m4567 -38 c-23 -25 -26 -25 -174 -25 l-150 0 34 25 c33 23 43 24
174 25 l139 0 -23 -25z m655 0 c-29 -24 -36 -25 -169 -25 l-140 0 34 25 c32
24 40 25 169 25 l136 -1 -30 -24z m505 -30 c0 -43 -4 -56 -19 -65 -29 -15 -31
-13 -31 30 l0 40 -87 0 -88 0 30 25 c26 21 40 24 113 25 l82 0 0 -55z m-25
-747 l-25 -30 0 203 c0 196 1 203 23 227 l22 24 3 -197 2 -197 -25 -30z
m-4496 291 c10 -30 8 -49 -7 -49 -9 0 -32 49 -32 67 0 26 28 12 39 -18z m891
-54 c0 -16 -27 -32 -37 -22 -3 4 -3 13 0 22 8 20 37 20 37 0z m-5117 -52 c-7
-2 -19 -2 -25 0 -7 3 -2 5 12 5 14 0 19 -2 13 -5z m3807 -22 c0 -6 -10 -22
-22 -36 -21 -24 -24 -25 -43 -10 -20 15 -20 15 4 35 24 21 61 27 61 11z m86
-38 c-10 -10 -19 5 -10 18 6 11 8 11 12 0 2 -7 1 -15 -2 -18z m1288 -64 c-6
-11 -24 -2 -24 11 0 5 7 7 15 4 8 -4 12 -10 9 -15z m-5614 -30 c0 -14 -27 -10
-33 5 -4 10 0 12 14 9 10 -3 19 -9 19 -14z m208 -320 c-12 -7 -24 -7 -35 0
-15 9 -12 10 17 10 29 0 32 -1 18 -10z m-11 -35 c-3 -3 -12 -4 -19 -1 -8 3 -5
6 6 6 11 1 17 -2 13 -5z m4397 -98 c62 -31 115 -87 147 -160 24 -55 20 -84
-17 -133 -19 -26 -22 -33 -10 -33 21 0 45 40 60 97 10 41 18 52 57 73 66 37
155 35 242 -8 79 -39 187 -137 267 -243 106 -141 111 -153 137 -333 36 -256
30 -330 -32 -385 -52 -45 -131 -65 -234 -58 -112 7 -204 37 -288 93 -64 43
-66 43 -38 13 52 -57 69 -70 123 -96 41 -19 52 -29 47 -42 -29 -68 -47 -132
-48 -169 l-2 -43 -50 6 c-61 8 -147 45 -197 85 -48 39 -60 38 -22 -1 37 -40
86 -64 204 -104 89 -30 96 -34 118 -73 36 -65 32 -145 -11 -230 -18 -37 -37
-87 -41 -111 -10 -63 -44 -138 -72 -156 -13 -8 -41 -15 -64 -15 -36 0 -46 -6
-93 -56 -42 -44 -60 -56 -86 -58 -70 -3 -83 -110 -27 -222 19 -38 34 -69 33
-70 -118 -67 -238 -165 -290 -238 -15 -22 3 -10 63 38 119 97 175 131 269 162
80 26 83 27 117 10 24 -11 40 -29 51 -54 28 -68 167 -250 365 -479 l88 -101
-43 -21 c-51 -24 -142 -113 -193 -187 -19 -28 -42 -77 -50 -110 -31 -118 -97
-212 -166 -236 -18 -6 -28 -17 -28 -29 0 -48 -62 -129 -133 -173 -168 -104
-607 -128 -868 -46 -66 20 -129 63 -129 86 0 9 15 34 34 57 57 71 136 195 166
261 16 34 51 153 78 263 42 169 56 209 86 252 55 81 56 109 8 184 -54 81 -110
203 -118 256 -4 23 -15 52 -25 64 -25 32 -100 28 -222 -12 -129 -42 -182 -40
-214 8 -26 38 -29 87 -11 139 12 31 11 35 -11 53 -13 10 -33 19 -46 19 -27 0
-41 40 -25 70 9 17 6 24 -16 44 l-27 23 17 62 c9 33 15 65 12 70 -3 5 -25 11
-48 15 -58 9 -88 31 -88 62 0 14 27 71 60 126 33 56 60 108 60 115 0 7 -9 13
-20 13 -12 0 -35 8 -53 18 l-32 17 60 5 60 5 6 135 c6 135 30 254 64 321 14
27 14 31 -9 68 -33 51 -50 121 -42 166 10 53 59 102 118 120 33 10 55 11 66 5
31 -18 205 -90 209 -87 2 2 -42 25 -97 50 -55 25 -100 51 -100 57 0 7 9 23 19
36 11 14 27 49 37 77 9 29 25 69 35 89 l19 37 52 -24 c29 -13 71 -26 93 -29
34 -5 32 -3 -18 13 -72 24 -96 40 -176 115 -126 120 -144 226 -55 325 62 69
126 95 235 95 79 1 91 -2 154 -34 81 -41 121 -90 140 -172 12 -50 13 -51 14
-17 1 23 -11 59 -29 95 -31 57 -31 58 -12 83 28 39 107 89 176 111 85 28 185
23 260 -14z m4561 -447 l-25 -44 0 233 c0 227 1 235 23 265 l22 32 3 -221 c2
-220 2 -222 -23 -265z m-2200 370 c10 -15 -1 -23 -20 -15 -9 3 -13 10 -10 16
8 13 22 13 30 -1z m-5375 -59 c0 -5 -10 -12 -22 -14 -53 -11 -78 -13 -78 -6 0
10 59 22 71 14 5 -3 9 0 9 5 0 6 5 11 10 11 6 0 10 -4 10 -10z m4425 -80 c3
-5 1 -10 -4 -10 -6 0 -11 5 -11 10 0 6 2 10 4 10 3 0 8 -4 11 -10z m-5160
-126 c105 -21 149 -36 230 -76 55 -28 102 -53 105 -57 11 -13 162 -84 242
-112 79 -29 166 -55 216 -66 12 -3 25 -9 28 -14 5 -9 -82 -13 -221 -12 l-70 1
55 -8 c30 -4 71 -13 90 -18 33 -9 32 -10 -26 -11 -69 -1 -217 20 -314 44 -36
9 -83 20 -105 25 -22 5 -61 16 -85 25 -25 9 -74 25 -110 36 -36 12 -83 29
-105 38 -54 23 -108 38 -180 50 l-60 10 56 -2 c83 -3 58 31 -35 48 -38 8 -48
21 -18 27 10 3 0 10 -28 19 -53 18 -58 39 -12 51 18 5 30 13 27 18 -3 6 1 7 9
4 9 -4 16 -1 16 6 0 19 135 6 295 -26z m8185 -35 c0 -12 -7 -19 -20 -19 -24 0
-38 29 -20 40 19 12 40 1 40 -21z m-7255 -350 c11 -11 -44 -12 -140 -2 -70 8
-70 8 -25 14 54 8 151 0 165 -12z m5442 -14 c7 -20 -24 -55 -49 -55 -26 0 -23
35 4 54 28 20 37 20 45 1z m-6467 -154 c0 -22 -25 -45 -40 -36 -16 10 -12 33
8 44 25 15 32 13 32 -8z m5815 -1 c12 -19 -24 -60 -50 -60 -31 0 -32 16 -3 47
23 25 43 29 53 13z m-5675 -16 c0 -2 -7 -4 -15 -4 -8 0 -15 4 -15 10 0 5 7 7
15 4 8 -4 15 -8 15 -10z m41 -11 c-10 -4 -10 -7 -1 -13 9 -5 9 -9 1 -14 -6 -4
-11 -2 -11 3 0 6 -8 11 -17 12 -15 0 -15 2 2 9 11 5 25 9 30 9 6 -1 4 -3 -4
-6z m-64 -19 c-3 -3 -12 -4 -19 -1 -8 3 -5 6 6 6 11 1 17 -2 13 -5z m151 -1
c-10 -2 -28 -2 -40 0 -13 2 -5 4 17 4 22 1 32 -1 23 -4z m82 0 c0 -5 32 -9 72
-10 103 -2 159 -9 341 -39 89 -15 164 -31 165 -35 2 -5 10 -9 18 -9 8 0 14 -4
14 -10 0 -5 7 -10 15 -10 8 0 15 -7 15 -15 0 -18 -2 -18 -70 -5 -55 11 -79 5
-61 -13 6 -6 11 -21 11 -34 0 -12 8 -27 18 -32 22 -13 7 -14 -72 -2 -34 6 -97
15 -141 21 -100 15 -405 70 -425 77 -11 4 -12 7 -2 10 15 6 -23 38 -60 52 -21
7 -19 9 20 16 23 4 42 11 42 16 0 5 9 9 19 9 11 0 23 5 26 10 7 12 55 14 55 3z
m7730 -73 c11 -7 12 -12 3 -21 -15 -15 -43 -5 -43 16 0 17 18 19 40 5z m-7877
-27 c-7 -2 -19 -2 -25 0 -7 3 -2 5 12 5 14 0 19 -2 13 -5z m867 -33 c20 -6 21
-8 5 -8 -11 0 -29 3 -40 8 -25 11 1 11 35 0z m5163 -892 c6 -8 7 -23 3 -33 -6
-17 -7 -17 -21 1 -17 23 -20 57 -3 52 6 -2 16 -11 21 -20z m1988 -85 c5 -14 7
-34 4 -42 -6 -13 -10 -12 -26 8 -10 13 -19 32 -19 42 0 28 29 23 41 -8z
m-3393 -126 c4 -20 -25 -34 -40 -19 -15 15 -1 44 19 40 10 -2 19 -11 21 -21z
m-3458 -506 c294 -66 604 -272 702 -468 47 -94 56 -162 33 -247 -35 -127 -6
-230 90 -331 28 -29 140 -123 250 -210 110 -87 202 -161 203 -166 2 -5 -68 -7
-165 -4 l-168 5 -95 90 c-112 107 -200 176 -255 201 -54 25 -139 24 -230 -3
-69 -20 -81 -21 -147 -10 -255 44 -523 328 -664 702 -24 64 -28 90 -28 180 -1
97 1 108 27 152 51 87 138 127 277 127 47 1 123 -8 170 -18z m5055 -321 c-95
-333 -308 -600 -806 -1015 -99 -83 -119 -95 -151 -95 -21 0 -38 4 -38 10 0 9
73 75 350 310 241 206 347 316 447 465 52 77 167 295 156 295 -4 0 -57 -68
-117 -151 -124 -172 -190 -246 -334 -379 -269 -246 -549 -437 -756 -515 -65
-25 -78 -26 -302 -28 -128 -1 -230 1 -226 4 4 3 90 62 192 131 102 69 345 239
540 379 390 280 597 419 825 556 217 130 240 142 243 132 2 -5 -8 -49 -23 -99z
m-6264 -623 c-1 -12 -15 -9 -19 4 -3 6 1 10 8 8 6 -3 11 -8 11 -12z m892 -348
c-6 -22 -38 -43 -53 -34 -15 9 -12 23 10 45 24 24 50 17 43 -11z m95 -21 c-6
-18 -28 -21 -28 -4 0 9 7 16 16 16 9 0 14 -5 12 -12z m-2736 -133 c0 -5 -5
-11 -11 -13 -6 -2 -11 4 -11 13 0 9 5 15 11 13 6 -2 11 -8 11 -13z m6254 -65
l2612 0 26 -34 c14 -19 26 -37 26 -40 0 -3 -1665 -6 -3700 -6 l-3700 0 0 40 0
40 1043 3 c573 1 1051 1 1062 0 11 -2 1195 -3 2631 -3z m-3009 -368 c35 -18
74 -48 90 -69 l28 -36 3 -183 3 -183 -50 -61 -51 -61 50 -62 50 -62 0 -178 c0
-193 -3 -209 -57 -259 -15 -15 -50 -37 -78 -50 -46 -21 -66 -23 -267 -26
l-218 -4 0 629 c0 347 3 633 8 637 4 4 102 6 217 4 l210 -4 62 -32z m818 3
c40 -20 69 -45 90 -73 l30 -44 3 -475 c2 -461 2 -477 -18 -517 -11 -22 -37
-53 -58 -67 -63 -44 -107 -54 -242 -54 -102 0 -131 4 -160 19 -61 32 -100 66
-120 106 -19 38 -20 60 -20 510 0 511 -1 498 57 551 65 61 131 79 269 76 101
-2 116 -5 169 -32z m805 4 c61 -26 115 -84 130 -139 7 -27 10 -128 8 -288 l-3
-247 -27 -46 c-51 -88 -125 -119 -279 -119 l-109 0 0 -200 0 -201 -102 3 -103
3 -3 535 c-2 353 1 547 8 571 18 65 103 130 193 149 71 15 229 4 287 -21z
m560 -254 c0 -159 4 -285 9 -285 5 0 52 39 105 86 l96 86 0 199 0 199 100 0
100 0 0 -691 0 -690 -22 6 c-30 9 -99 43 -118 58 -9 7 -25 25 -38 41 -22 28
-22 32 -22 373 0 202 -4 343 -9 341 -5 -1 -52 -41 -105 -87 l-96 -84 0 -269 0
-268 -100 0 -100 0 0 628 c0 346 3 632 7 635 3 4 48 7 100 7 l93 0 0 -285z
m818 -297 l2 -578 105 0 105 0 0 575 c0 453 3 575 13 575 23 0 112 -47 134
-71 53 -58 53 -61 53 -589 l0 -490 105 0 105 0 0 576 0 577 33 -7 c49 -10 118
-48 141 -79 21 -28 21 -37 24 -603 l2 -574 -515 0 -515 0 0 635 0 636 103 -3
102 -3 3 -577z m1630 525 l3 -53 -105 0 -106 0 0 -580 0 -580 -100 0 -100 0 0
580 0 580 -105 0 -105 0 0 55 0 55 308 -2 307 -3 3 -52z m792 -143 l0 -200
-100 0 -99 0 -3 143 -3 142 -100 0 -100 0 -3 -232 -2 -233 100 0 c55 0 100 -3
100 -7 1 -5 2 -29 4 -55 l4 -48 -104 0 -104 0 0 -235 0 -235 40 0 c33 0 40 -3
40 -19 0 -11 -4 -23 -10 -26 -5 -3 -10 -19 -10 -36 0 -24 -4 -29 -23 -29 -73
0 -182 58 -217 115 -19 31 -20 50 -20 514 0 395 3 487 14 509 31 58 101 105
186 122 19 4 119 8 223 9 l187 1 0 -200z m-6184 140 c0 -25 2 -282 2 -572 l2
-528 50 0 50 0 0 -105 0 -105 -27 0 c-54 0 -108 22 -146 61 l-39 39 -208 0
-207 0 -11 -24 c-13 -30 -105 -76 -152 -76 l-36 0 -3 105 -2 105 56 0 55 0 0
500 c-1 494 -1 501 20 535 27 43 70 75 135 97 42 15 82 17 255 15 l205 -2 1
-45z m-1455 -813 c-1 -12 -15 -9 -19 4 -3 6 1 10 8 8 6 -3 11 -8 11 -12z
m7589 -25 c0 -9 11 -34 25 -54 24 -35 25 -44 25 -177 l0 -141 -38 0 c-34 0
-46 8 -100 61 l-62 62 0 133 0 134 75 0 c65 0 75 -2 75 -18z m-5754 -573 c3
-6 0 -17 -7 -25 -18 -17 -44 -2 -36 20 7 18 33 21 43 5z m5434 -109 l0 -40
-3390 0 -3390 0 0 40 0 40 3390 0 3390 0 0 -40z m660 25 c0 -8 -4 -15 -9 -15
-5 0 -14 7 -21 15 -10 13 -9 15 9 15 12 0 21 -6 21 -15z m-5680 -159 c0 -4
-71 -50 -365 -233 -299 -187 -435 -275 -502 -326 -47 -35 -53 -43 -53 -76 0
-25 11 -50 35 -83 41 -56 67 -65 30 -11 -38 56 -33 83 23 135 66 62 264 190
552 358 135 79 279 165 321 192 l77 48 258 -2 259 -3 -67 -67 c-218 -216 -565
-433 -765 -479 -197 -46 -251 -68 -315 -128 -32 -31 -86 -96 -121 -146 -55
-79 -67 -90 -96 -93 -52 -5 -86 15 -150 87 -154 174 -158 237 -21 305 37 18
570 356 770 488 37 25 67 37 93 37 20 1 37 -1 37 -3z m3834 -223 c256 -252
352 -330 491 -399 l94 -47 7 -64 c9 -85 0 -132 -31 -162 -24 -24 -32 -26 -117
-26 -78 1 -93 3 -102 19 -96 164 -391 461 -814 819 l-103 87 172 0 172 0 231
-227z m-2825 -108 c16 -8 34 -28 40 -46 15 -43 14 -231 -1 -264 -14 -32 -56
-55 -98 -55 l-30 0 0 -85 0 -85 -30 0 -30 0 0 248 c1 178 4 251 13 263 31 40
87 50 136 24z m288 -20 c19 -22 23 -38 23 -101 l0 -74 -69 0 -69 0 -1 -60 0
-60 40 0 c37 0 39 2 39 30 0 27 3 30 30 30 26 0 30 -4 30 -27 -1 -76 -105
-111 -169 -57 l-31 26 0 137 c0 130 1 139 23 158 31 28 46 33 92 28 27 -2 47
-12 62 -30z m232 24 c34 -12 61 -53 61 -94 0 -22 -4 -25 -35 -25 -34 0 -35 1
-35 40 0 39 -1 40 -35 40 l-35 0 0 -140 0 -140 35 0 c34 0 35 1 35 40 0 39 1
40 35 40 33 0 35 -2 35 -36 0 -54 -44 -94 -105 -94 -35 0 -51 6 -70 25 -24 23
-25 31 -26 147 -2 148 -2 148 19 172 32 35 70 43 121 25z m321 -14 c0 -22 -4
-25 -35 -25 l-35 0 0 -165 0 -165 -30 0 c-24 0 -30 4 -30 23 -1 12 -1 86 0
165 l1 142 -36 0 c-31 0 -35 3 -35 25 l0 25 100 0 100 0 0 -25z m247 -10 c21
-24 23 -35 23 -155 0 -70 -3 -136 -6 -145 -9 -23 -57 -45 -98 -45 -23 0 -45 9
-65 26 l-31 26 0 135 0 135 30 30 c28 28 36 30 78 25 34 -4 53 -12 69 -32z
m270 0 c21 -24 23 -35 23 -160 l0 -133 -31 -26 c-21 -18 -42 -26 -69 -26 l-38
0 2 -82 1 -83 -32 -3 -33 -3 0 246 0 247 30 30 c28 28 36 30 78 25 34 -4 53
-12 69 -32z m283 -130 c0 -158 1 -165 20 -165 15 0 20 -7 20 -26 l0 -26 -99 4
c-91 3 -100 5 -120 28 -16 20 -20 39 -21 93 0 63 3 71 29 98 23 23 38 29 71
29 l41 0 -3 38 -3 37 -52 3 c-53 3 -64 11 -40 30 17 14 44 20 105 21 l52 1 0
-165z m160 100 l0 -65 35 0 35 0 0 65 c0 65 0 65 29 65 28 0 28 -1 34 -67 4
-38 7 -123 7 -190 l0 -123 -35 0 -35 0 0 99 0 99 -35 4 -35 4 0 -103 0 -103
-35 0 -35 0 0 190 0 190 35 0 35 0 0 -65z m-5612 -567 l-23 -17 -3 155 c-2
147 -1 156 20 185 l23 31 3 -168 c2 -165 2 -169 -20 -186z m2489 26 c3 -8 0
-21 -6 -27 -14 -14 -44 2 -49 27 -5 22 46 22 55 0z m668 -43 c0 -28 -25 -47
-49 -38 -21 8 -21 43 2 56 27 16 47 8 47 -18z m75 -14 c0 -24 -26 -51 -44 -44
-16 6 -22 38 -9 50 12 12 53 7 53 -6z m5166 -59 c17 -19 17 -21 1 -15 -15 6
-16 2 -11 -33 4 -26 3 -40 -4 -40 -6 0 -9 7 -6 15 3 8 2 20 -2 27 -11 18 -15
68 -5 68 4 0 16 -10 27 -22z m20 -37 c-4 -5 -2 -11 4 -13 7 -2 6 -13 -2 -30
-14 -30 -35 -39 -23 -10 4 9 9 26 10 37 4 25 4 25 11 25 3 0 3 -4 0 -9z m46
-59 c-6 -16 -7 -16 -10 1 -2 9 -8 15 -13 12 -13 -9 -11 -35 2 -35 7 0 17 -8
24 -17 11 -15 15 -15 29 -4 18 15 22 1 5 -16 -7 -7 -1 -14 23 -23 18 -7 38
-14 43 -14 6 -1 9 -8 7 -15 -2 -8 3 -11 11 -8 15 5 37 -10 37 -25 0 -4 -7 -8
-15 -8 -8 0 -15 5 -15 10 0 5 -3 9 -7 8 -14 -4 -114 53 -120 67 -3 8 -9 12
-14 9 -5 -3 -9 2 -9 10 0 9 -4 16 -10 16 -13 0 -13 -6 0 -31 8 -13 7 -19 0
-19 -15 0 -34 54 -21 58 6 2 11 10 11 18 0 8 6 21 13 28 16 18 38 1 29 -22z
m20 -34 c-9 -9 -12 -7 -12 12 0 19 3 21 12 12 9 -9 9 -15 0 -24z m75 -45 c-7
-6 -46 10 -41 18 3 5 14 3 24 -3 11 -7 18 -13 17 -15z m-5044 -38 c7 -18 -6
-27 -26 -19 -27 10 -29 34 -3 34 13 0 26 -7 29 -15z m5462 -265 c3 -6 -1 -7
-9 -4 -18 7 -21 14 -7 14 6 0 13 -4 16 -10z m-8935 -213 c12 -3 18 -11 15 -19
-8 -19 -58 -48 -85 -48 -19 0 -21 4 -15 28 4 15 9 55 12 90 4 53 8 65 26 71
21 8 22 5 25 -54 2 -53 6 -64 22 -68z m8670 103 c0 -5 -4 -10 -10 -10 -5 0
-10 5 -10 10 0 6 5 10 10 10 6 0 10 -4 10 -10z m322 -33 c-3 -21 0 -25 17 -20
15 4 21 1 21 -11 0 -8 11 -18 25 -22 14 -3 25 -11 25 -16 0 -6 -10 -8 -22 -4
-13 3 -31 6 -40 6 -10 0 -18 7 -18 15 0 8 -5 15 -11 15 -6 0 -17 7 -25 15 -14
13 -14 15 1 15 13 0 16 6 12 21 -3 13 -1 19 6 16 7 -2 11 -15 9 -30z m132
-102 c16 -12 17 -15 4 -15 -24 0 -48 11 -48 21 0 13 23 10 44 -6z m-7584 -134
c0 -11 5 -23 10 -26 13 -8 13 -25 1 -25 -12 0 -41 57 -33 64 11 12 22 5 22
-13z m6920 -111 c8 -5 11 -10 5 -10 -5 0 -17 5 -25 10 -8 5 -10 10 -5 10 6 0
17 -5 25 -10z m50 6 c0 -3 -4 -8 -10 -11 -5 -3 -10 -1 -10 4 0 6 5 11 10 11 6
0 10 -2 10 -4z m-40 -36 c0 -5 -4 -10 -10 -10 -5 0 -10 5 -10 10 0 6 5 10 10
10 6 0 10 -4 10 -10z m40 0 c0 -5 -7 -10 -15 -10 -8 0 -15 5 -15 10 0 6 7 10
15 10 8 0 15 -4 15 -10z m-7162 -50 c-12 -19 -24 -20 -405 -20 -382 0 -393 1
-403 20 -11 20 -8 20 405 20 413 0 415 0 403 -20z m7215 -47 c-7 -2 -19 -2
-25 0 -7 3 -2 5 12 5 14 0 19 -2 13 -5z m-3129 -111 c2 -4 -4 -8 -14 -8 -10 0
-16 4 -14 8 3 4 9 8 14 8 5 0 11 -4 14 -8z m-3116 -34 c20 -20 14 -38 -12 -38
-27 0 -44 29 -24 42 17 10 22 10 36 -4z m3142 2 c0 -5 -4 -10 -10 -10 -5 0
-10 5 -10 10 0 6 5 10 10 10 6 0 10 -4 10 -10z m-90 -55 c7 -9 8 -15 2 -15 -5
0 -12 7 -16 15 -3 8 -4 15 -2 15 2 0 9 -7 16 -15z m-53 -21 c-3 -3 -12 -4 -19
-1 -8 3 -5 6 6 6 11 1 17 -2 13 -5z m23 -22 c0 -4 -12 -8 -27 -9 -24 -1 -25
-1 -8 7 26 11 35 12 35 2z m-2620 -52 c23 -23 19 -40 -9 -40 -24 0 -45 25 -37
45 7 21 22 19 46 -5z m6335 -68 c-8 -8 -25 10 -19 20 4 6 9 5 15 -3 4 -7 6
-15 4 -17z"/>
<path d="M1570 8540 c0 -5 7 -10 15 -10 8 0 15 5 15 10 0 6 -7 10 -15 10 -8 0
-15 -4 -15 -10z"/>
<path d="M2333 8293 c9 -2 23 -2 30 0 6 3 -1 5 -18 5 -16 0 -22 -2 -12 -5z"/>
<path d="M2750 5934 c0 -5 40 -91 89 -190 237 -474 459 -599 724 -407 26 19
47 38 47 42 0 4 -33 -4 -72 -17 -132 -44 -264 -14 -404 94 -111 84 -214 214
-362 454 -12 19 -22 30 -22 24z"/>
<path d="M3120 4095 l0 -235 105 0 105 0 0 235 0 235 -105 0 -105 0 0 -235z"/>
<path d="M3120 3515 l0 -235 105 0 105 0 0 235 0 235 -105 0 -105 0 0 -235z"/>
<path d="M3932 3808 l3 -523 103 -3 102 -3 0 526 0 525 -105 0 -105 0 2 -522z"/>
<path d="M4750 4005 l0 -325 105 0 105 0 0 325 0 325 -105 0 -105 0 0 -325z"/>
<path d="M2230 3800 l0 -520 105 0 105 0 0 520 0 520 -105 0 -105 0 0 -520z"/>
<path d="M3364 2536 c-10 -25 0 -51 20 -54 27 -6 48 25 35 49 -12 22 -47 25
-55 5z"/>
<path d="M2686 2124 c-22 -21 -3 -56 27 -52 37 5 33 67 -5 68 -4 0 -14 -7 -22
-16z"/>
<path d="M4360 2220 l0 -140 35 0 35 0 0 140 0 140 -35 0 -35 0 0 -140z"/>
<path d="M4620 2305 l0 -55 40 0 40 0 0 55 0 55 -40 0 -40 0 0 -55z"/>
<path d="M5430 2358 c-1 -2 -2 -65 -3 -141 l-2 -137 33 0 32 0 0 140 0 140
-30 0 c-16 0 -30 -1 -30 -2z"/>
<path d="M5697 2353 c-3 -5 -6 -68 -6 -140 l-2 -133 36 0 35 0 0 140 0 140
-29 0 c-17 0 -32 -3 -34 -7z"/>
<path d="M5960 2155 l0 -75 35 0 35 0 0 75 0 75 -35 0 -35 0 0 -75z"/>
<path d="M3941 10783 c0 -11 3 -13 6 -5 2 6 9 12 14 12 13 0 11 -28 -3 -32 -9
-3 -9 -6 -1 -11 7 -4 15 5 22 23 9 28 8 30 -15 30 -16 0 -24 -5 -23 -17z"/>
<path d="M3907 10769 c4 -16 8 -17 14 -7 13 19 11 28 -5 28 -9 0 -12 -7 -9
-21z"/>
<path d="M834 10769 c-3 -6 -1 -16 5 -22 8 -8 11 -5 11 11 0 24 -5 28 -16 11z"/>
<path d="M3846 10753 c-6 -14 -5 -15 5 -6 7 7 10 15 7 18 -3 3 -9 -2 -12 -12z"/>
<path d="M3830 10726 c0 -2 7 -7 16 -10 8 -3 12 -2 9 4 -6 10 -25 14 -25 6z"/>
<path d="M3870 10726 c0 -7 60 -12 70 -6 6 4 -7 7 -30 8 -22 1 -40 0 -40 -2z"/>
<path d="M830 10700 c0 -5 12 -10 26 -10 14 0 23 4 19 10 -3 6 -15 10 -26 10
-10 0 -19 -4 -19 -10z"/>
<path d="M3920 10661 c0 -6 4 -13 10 -16 6 -3 7 1 4 9 -7 18 -14 21 -14 7z"/>
<path d="M4039 10643 c-12 -14 -12 -16 0 -8 9 5 19 2 28 -10 7 -11 13 -15 13
-9 0 5 -7 17 -14 27 -13 16 -14 16 -27 0z"/>
<path d="M850 10630 c0 -5 4 -10 9 -10 6 0 13 5 16 10 3 6 -1 10 -9 10 -9 0
-16 -4 -16 -10z"/>
<path d="M4095 10620 c3 -5 11 -10 16 -10 6 0 7 5 4 10 -3 6 -11 10 -16 10 -6
0 -7 -4 -4 -10z"/>
<path d="M4130 10620 c0 -5 5 -10 10 -10 6 0 10 5 10 10 0 6 -4 10 -10 10 -5
0 -10 -4 -10 -10z"/>
<path d="M4056 10559 c3 -5 10 -9 16 -9 12 0 37 -30 38 -44 0 -4 -6 -6 -12 -3
-7 2 -22 1 -33 -4 -17 -6 -16 -8 10 -9 32 -2 58 0 63 5 7 7 -50 63 -69 68 -10
3 -17 1 -13 -4z"/>
<path d="M752 10540 c0 -14 2 -19 5 -12 2 6 2 18 0 25 -3 6 -5 1 -5 -13z"/>
<path d="M4000 10478 c0 -9 5 -20 10 -23 13 -8 13 5 0 25 -8 13 -10 13 -10 -2z"/>
<path d="M1000 10419 c0 -5 5 -7 10 -4 6 3 10 8 10 11 0 2 -4 4 -10 4 -5 0
-10 -5 -10 -11z"/>
<path d="M4016 10403 c6 -4 14 -15 17 -23 5 -11 6 -9 4 4 -1 11 -9 21 -17 23
-10 3 -11 2 -4 -4z"/>
<path d="M990 10389 c0 -5 5 -7 10 -4 6 3 10 8 10 11 0 2 -4 4 -10 4 -5 0 -10
-5 -10 -11z"/>
<path d="M1028 10363 c7 -3 16 -2 19 1 4 3 -2 6 -13 5 -11 0 -14 -3 -6 -6z"/>
<path d="M1040 10329 c0 -5 5 -7 10 -4 6 3 10 8 10 11 0 2 -4 4 -10 4 -5 0
-10 -5 -10 -11z"/>
<path d="M4018 10333 c6 -2 18 -2 25 0 6 3 1 5 -13 5 -14 0 -19 -2 -12 -5z"/>
<path d="M4068 10313 c6 -2 18 -2 25 0 6 3 1 5 -13 5 -14 0 -19 -2 -12 -5z"/>
<path d="M1030 10300 c0 -5 4 -10 9 -10 6 0 13 5 16 10 3 6 -1 10 -9 10 -9 0
-16 -4 -16 -10z"/>
<path d="M4120 10301 c0 -6 4 -13 10 -16 6 -3 7 1 4 9 -7 18 -14 21 -14 7z"/>
<path d="M4198 10293 c7 -3 16 -2 19 1 4 3 -2 6 -13 5 -11 0 -14 -3 -6 -6z"/>
<path d="M1040 10255 c0 -8 2 -15 4 -15 2 0 6 7 10 15 3 8 1 15 -4 15 -6 0
-10 -7 -10 -15z"/>
<path d="M4170 10266 c0 -2 6 -9 14 -15 10 -9 15 -8 19 2 3 8 -3 13 -14 14
-10 1 -19 0 -19 -1z"/>
<path d="M4220 10239 c0 -4 6 -12 14 -18 11 -9 15 -8 20 5 3 8 6 17 6 18 0 1
-9 2 -20 2 -11 0 -20 -3 -20 -7z"/>
<path d="M4315 10240 c3 -5 8 -10 11 -10 2 0 4 5 4 10 0 6 -5 10 -11 10 -5 0
-7 -4 -4 -10z"/>
<path d="M4200 10224 c0 -13 18 -39 24 -34 2 3 -2 14 -10 24 -8 11 -14 16 -14
10z"/>
<path d="M4150 10200 c0 -5 5 -10 11 -10 5 0 7 5 4 10 -3 6 -8 10 -11 10 -2 0
-4 -4 -4 -10z"/>
<path d="M4180 10200 c0 -5 5 -10 11 -10 5 0 7 5 4 10 -3 6 -8 10 -11 10 -2 0
-4 -4 -4 -10z"/>
<path d="M956 10123 c-3 -8 -4 -24 -2 -36 1 -12 1 -16 -1 -9 -7 18 -19 15 -35
-10 -9 -13 -29 -39 -46 -58 -16 -19 -55 -66 -86 -104 -31 -38 -56 -62 -57 -55
0 8 -5 3 -10 -11 -8 -19 -12 -21 -19 -10 -6 10 -10 4 -13 -21 -3 -29 -4 -26
-7 16 l-3 50 -7 -50 c-10 -60 -13 -295 -4 -295 13 0 111 56 149 85 22 18 47
30 56 28 9 -2 72 26 140 63 68 36 134 70 147 75 12 5 22 13 22 19 0 5 9 10 20
10 17 0 19 3 10 19 -7 14 -6 21 3 25 6 3 2 3 -10 0 -17 -4 -23 -1 -23 10 0 22
-9 20 -37 -6 -13 -12 -23 -16 -23 -10 0 6 10 18 22 26 12 9 19 18 16 22 -3 3
-37 -20 -75 -50 -65 -53 -93 -67 -93 -47 0 5 3 11 8 14 4 2 0 1 -8 -1 -8 -3
-32 -7 -52 -10 -30 -3 -38 -1 -38 12 0 9 7 19 15 22 10 4 13 15 10 33 -3 14
-2 20 1 14 10 -22 27 -14 21 8 -4 16 6 33 41 68 46 46 54 64 39 89 -5 6 -6 16
-2 21 3 5 -3 12 -12 14 -13 3 -11 5 7 6 25 2 25 2 -5 16 l-30 13 29 1 c37 1
31 7 -16 14 -27 4 -38 2 -42 -10z m44 -63 c0 -5 -4 -10 -9 -10 -6 0 -13 5 -16
10 -3 6 1 10 9 10 9 0 16 -4 16 -10z m0 -40 c0 -5 -2 -10 -4 -10 -3 0 -8 5
-11 10 -3 6 -1 10 4 10 6 0 11 -4 11 -10z m190 -180 c13 -8 13 -10 -2 -10 -9
0 -20 5 -23 10 -8 13 5 13 25 0z"/>
<path d="M1238 9833 c7 -3 16 -2 19 1 4 3 -2 6 -13 5 -11 0 -14 -3 -6 -6z"/>
<path d="M4066 9381 c-4 -7 -5 -15 -2 -18 9 -9 19 4 14 18 -4 11 -6 11 -12 0z"/>
<path d="M3986 9221 c-4 -7 -5 -15 -2 -18 9 -9 19 4 14 18 -4 11 -6 11 -12 0z"/>
<path d="M1680 9070 c0 -5 4 -10 9 -10 6 0 13 5 16 10 3 6 -1 10 -9 10 -9 0
-16 -4 -16 -10z"/>
<path d="M2178 9023 c12 -2 32 -2 45 0 12 2 2 4 -23 4 -25 0 -35 -2 -22 -4z"/>
<path d="M8928 793 c7 -3 16 -2 19 1 4 3 -2 6 -13 5 -11 0 -14 -3 -6 -6z"/>
<path d="M8968 693 c7 -3 16 -2 19 1 4 3 -2 6 -13 5 -11 0 -14 -3 -6 -6z"/>
<path d="M9008 693 c6 -2 18 -2 25 0 6 3 1 5 -13 5 -14 0 -19 -2 -12 -5z"/>
<path d="M6208 593 c7 -3 16 -2 19 1 4 3 -2 6 -13 5 -11 0 -14 -3 -6 -6z"/>
<path d="M6176 485 c4 -8 8 -15 10 -15 2 0 4 7 4 15 0 8 -4 15 -10 15 -5 0 -7
-7 -4 -15z"/>
<path d="M6080 372 c0 -5 7 -9 15 -9 8 0 15 4 15 9 0 4 -7 8 -15 8 -8 0 -15
-4 -15 -8z"/>
<path d="M6033 273 c9 -2 23 -2 30 0 6 3 -1 5 -18 5 -16 0 -22 -2 -12 -5z"/>
<path d="M9618 258 c9 -9 15 -9 24 0 9 9 7 12 -12 12 -19 0 -21 -3 -12 -12z"/>
</g>
</svg>
